<svg width="26" height="26" viewBox="0 0 26 26" fill="none" xmlns="http://www.w3.org/2000/svg">
    <path d="M11.7628 12.7257L11.4892 12.9993C9.85417 14.6343 8.21998 16.2685 6.58498 17.9035C6.53747 17.951 6.48914 17.9977 6.44163 18.0468C6.09186 18.413 6.06155 18.7873 6.35726 19.0896C6.66116 19.4001 7.04943 19.3755 7.41968 19.0069C9.10466 17.3268 10.7855 15.6427 12.468 13.9602C12.5483 13.8799 12.6286 13.7996 12.7326 13.6956C12.8408 13.8037 12.9276 13.8905 13.0144 13.9774C14.6896 15.6525 16.3655 17.3285 18.0407 19.0036C18.3929 19.3558 18.6632 19.3951 19.0097 19.1584C19.3365 18.9348 19.3996 18.5064 19.1473 18.2C19.0801 18.1181 19.0015 18.046 18.927 17.9715C17.2723 16.3168 15.6168 14.6613 13.9622 13.0067C13.8819 12.9264 13.8016 12.8461 13.6918 12.7364L13.949 12.4791C15.6045 10.8237 17.2592 9.169 18.913 7.51188C19.0138 7.41112 19.1088 7.29972 19.1866 7.17931C19.3718 6.89097 19.3357 6.61083 19.099 6.36918C18.85 6.11525 18.5706 6.08002 18.2667 6.2758C18.1553 6.34788 18.0513 6.43717 17.9571 6.53137C16.3 8.18521 14.6461 9.84069 12.9907 11.4962L12.7228 11.764C12.6163 11.6575 12.5295 11.5707 12.4435 11.4847C10.761 9.8022 9.07926 8.1205 7.39675 6.43799C7.06008 6.10132 6.79304 6.06364 6.45228 6.29628C6.13036 6.51499 6.05827 6.91637 6.29255 7.23092C6.36627 7.33085 6.45801 7.41768 6.54648 7.50615C8.18804 9.1477 9.82959 10.7893 11.4703 12.43C11.558 12.5176 11.6456 12.6053 11.7636 12.7232L11.7628 12.7257Z"
          fill="#003C6A"/>
</svg>
