<svg width="8" height="17" viewBox="0 0 8 17" fill="none" xmlns="http://www.w3.org/2000/svg">
<path d="M7.64471 0.442626C7.75733 0.582021 7.84669 0.747596 7.90765 0.929872C7.96862 1.11215 8 1.30755 8 1.50488C8 1.70222 7.96862 1.89762 7.90765 2.0799C7.84669 2.26217 7.75733 2.42775 7.64471 2.56714L2.93089 8.41333L7.64471 14.2595C7.87187 14.5412 7.99949 14.9233 7.99949 15.3218C7.99949 15.7202 7.87187 16.1023 7.64471 16.384C7.41755 16.6658 7.10945 16.824 6.7882 16.824C6.46695 16.824 6.15886 16.6658 5.9317 16.384L0.35529 9.46805C0.242664 9.32866 0.153311 9.16308 0.0923452 8.98081C0.0313797 8.79853 0 8.60313 0 8.4058C0 8.20846 0.0313797 8.01306 0.0923452 7.83078C0.153311 7.64851 0.242664 7.48293 0.35529 7.34354L5.9317 0.427558C6.39336 -0.145006 7.1709 -0.145006 7.64471 0.442626Z" fill="#003DA5"/>
</svg>
