<svg width="39" height="38" viewBox="0 0 39 38" fill="none" xmlns="http://www.w3.org/2000/svg">
<path d="M35.4866 21.6585C36.9608 12.6333 30.8096 4.12669 21.7473 2.65846C12.6851 1.19023 4.14362 7.31635 2.66937 16.3415C1.19512 25.3667 7.34638 33.8733 16.4086 35.3415C25.4708 36.8098 34.0123 30.6836 35.4866 21.6585Z" fill="#005EAA"/>
<path d="M26.5189 25.1341C26.4487 25.4483 26.3192 25.7301 26.0053 25.8637C25.8499 25.9298 25.6702 25.9723 25.5018 25.9723C21.2635 25.979 17.0256 25.979 12.7874 25.9785C12.2754 25.9785 11.9541 25.7334 11.8128 25.2402C11.3118 23.4902 10.8124 21.7393 10.3143 19.9884C10.1901 19.5518 10.4212 19.2459 10.8776 19.2397C11.1526 19.2359 11.4279 19.2388 11.7029 19.2388C11.7598 19.2388 11.817 19.2388 11.8868 19.2388C11.8868 19.1568 11.8868 19.0944 11.8868 19.032C11.8868 17.9674 11.8868 16.9032 11.8868 15.8386C11.8868 15.3837 12.0895 15.1806 12.5433 15.1802C13.723 15.1798 14.9032 15.1802 16.0829 15.1802H16.2521V16.251H12.9754V19.2388H13.1881C16.8547 19.2388 20.5213 19.2388 24.1883 19.2401C24.3037 19.2401 24.4245 19.2426 24.5331 19.2763C24.7446 19.3412 24.8432 19.5135 24.9004 19.717C25.0546 20.2639 25.2122 20.8099 25.3689 21.356C25.381 21.3988 25.3981 21.4404 25.4287 21.4767V18.0231H20.7541C21.0349 17.6985 21.1929 17.3572 21.2217 16.9431H21.411C22.882 16.9431 24.353 16.9431 25.8236 16.9431C26.2502 16.9431 26.371 17.026 26.5194 17.4188V25.1337L26.5189 25.1341Z" fill="white"/>
<path d="M17.3429 13.6237C16.9769 13.6237 16.6288 13.6283 16.2811 13.6225C15.9677 13.6171 15.7591 13.3844 15.8206 13.0981C15.841 13.0015 15.9012 12.9008 15.9718 12.83C16.7792 12.0181 17.5912 11.2107 18.404 10.4041C18.6225 10.1873 18.872 10.1831 19.0889 10.3979C19.9063 11.2073 20.7208 12.0197 21.5353 12.8321C21.6819 12.9782 21.7429 13.1518 21.6573 13.3499C21.572 13.5467 21.4061 13.6237 21.198 13.6237C20.8604 13.6237 20.5227 13.6237 20.16 13.6237C20.16 13.6945 20.16 13.7548 20.16 13.8152C20.16 14.784 20.16 15.7533 20.16 16.7222C20.16 17.2216 19.9339 17.4468 19.4345 17.4472C18.969 17.4472 18.5039 17.448 18.0383 17.4472C17.5765 17.4464 17.3429 17.2158 17.3429 16.7601C17.3425 15.7804 17.3429 14.8011 17.3429 13.8214V13.6237Z" fill="white"/>
</svg>
