<svg width="11" height="16" viewBox="0 0 11 16" fill="none" xmlns="http://www.w3.org/2000/svg">
<path d="M5.5 8C6.39002 8 7.26004 7.7654 8.00007 7.32588C8.74009 6.88635 9.31686 6.26164 9.65746 5.53073C9.99805 4.79983 10.0872 3.99556 9.91353 3.21964C9.7399 2.44372 9.31132 1.73098 8.68198 1.17157C8.05264 0.612164 7.25082 0.231201 6.37791 0.0768607C5.50499 -0.0774802 4.60019 0.00173314 3.77792 0.304484C2.95566 0.607234 2.25285 1.11992 1.75839 1.77772C1.26392 2.43552 1 3.20888 1 4C1.00119 5.06054 1.47568 6.07734 2.31934 6.82726C3.16299 7.57717 4.30689 7.99894 5.5 8ZM5.5 1.33333C6.09334 1.33333 6.67336 1.48973 7.16671 1.78275C7.66006 2.07577 8.04457 2.49224 8.27164 2.97951C8.4987 3.46678 8.55811 4.00296 8.44236 4.52024C8.3266 5.03752 8.04088 5.51268 7.62132 5.88562C7.20176 6.25856 6.66721 6.51253 6.08527 6.61543C5.50333 6.71832 4.90013 6.66551 4.35195 6.46368C3.80377 6.26185 3.33523 5.92005 3.00559 5.48152C2.67595 5.04299 2.5 4.52742 2.5 4C2.5 3.29276 2.81607 2.61448 3.37868 2.11438C3.94129 1.61429 4.70435 1.33333 5.5 1.33333Z" fill="#003DA5"/>
<path d="M5.5 9C4.04181 9.00185 2.6438 9.6662 1.6127 10.8473C0.5816 12.0284 0.00161752 13.6297 0 15.3C0 15.4857 0.0643847 15.6637 0.17899 15.795C0.293596 15.9263 0.449034 16 0.611111 16C0.773188 16 0.928626 15.9263 1.04323 15.795C1.15784 15.6637 1.22222 15.4857 1.22222 15.3C1.22222 14.0004 1.67292 12.7541 2.47515 11.8352C3.27739 10.9162 4.36546 10.4 5.5 10.4C6.63454 10.4 7.72261 10.9162 8.52485 11.8352C9.32708 12.7541 9.77778 14.0004 9.77778 15.3C9.77778 15.4857 9.84216 15.6637 9.95677 15.795C10.0714 15.9263 10.2268 16 10.3889 16C10.551 16 10.7064 15.9263 10.821 15.795C10.9356 15.6637 11 15.4857 11 15.3C10.9984 13.6297 10.4184 12.0284 9.3873 10.8473C8.3562 9.6662 6.95819 9.00185 5.5 9Z" fill="#003DA5"/>
</svg>
