<svg width="18" height="18" viewBox="0 0 18 18" fill="none" xmlns="http://www.w3.org/2000/svg">
<mask id="mask0_1662_2397" style="mask-type:alpha" maskUnits="userSpaceOnUse" x="0" y="0" width="18" height="18">
<rect width="18" height="18" fill="#D9D9D9"/>
</mask>
<g mask="url(#mask0_1662_2397)">
<path d="M3.98081 16.1245C3.60194 16.1245 3.28125 15.9933 3.01875 15.7308C2.75625 15.4683 2.625 15.1476 2.625 14.7687V4.73034C2.625 4.35146 2.75625 4.03077 3.01875 3.76827C3.28125 3.50577 3.60194 3.37452 3.98081 3.37452H5.01919V1.78809H6.17306V3.37452H11.8558V1.78809H12.9808V3.37452H14.0192C14.3981 3.37452 14.7188 3.50577 14.9813 3.76827C15.2438 4.03077 15.375 4.35146 15.375 4.73034V14.7687C15.375 15.1476 15.2438 15.4683 14.9813 15.7308C14.7188 15.9933 14.3981 16.1245 14.0192 16.1245H3.98081ZM3.98081 14.9995H14.0192C14.0769 14.9995 14.1298 14.9755 14.1778 14.9273C14.2259 14.8793 14.25 14.8265 14.25 14.7687V7.73034H3.75V14.7687C3.75 14.8265 3.77406 14.8793 3.82219 14.9273C3.87019 14.9755 3.92306 14.9995 3.98081 14.9995ZM3.75 6.60534H14.25V4.73034C14.25 4.67259 14.2259 4.61971 14.1778 4.57171C14.1298 4.52359 14.0769 4.49952 14.0192 4.49952H3.98081C3.92306 4.49952 3.87019 4.52359 3.82219 4.57171C3.77406 4.61971 3.75 4.67259 3.75 4.73034V6.60534ZM9 10.5573C8.81637 10.5573 8.65987 10.4926 8.5305 10.3632C8.40125 10.234 8.33663 10.0775 8.33663 9.89371C8.33663 9.71009 8.40125 9.55359 8.5305 9.42421C8.65987 9.29496 8.81637 9.23034 9 9.23034C9.18363 9.23034 9.34013 9.29496 9.4695 9.42421C9.59875 9.55359 9.66338 9.71009 9.66338 9.89371C9.66338 10.0775 9.59875 10.234 9.4695 10.3632C9.34013 10.4926 9.18363 10.5573 9 10.5573ZM6 10.5573C5.81638 10.5573 5.65987 10.4926 5.5305 10.3632C5.40125 10.234 5.33663 10.0775 5.33663 9.89371C5.33663 9.71009 5.40125 9.55359 5.5305 9.42421C5.65987 9.29496 5.81638 9.23034 6 9.23034C6.18362 9.23034 6.34013 9.29496 6.4695 9.42421C6.59875 9.55359 6.66337 9.71009 6.66337 9.89371C6.66337 10.0775 6.59875 10.234 6.4695 10.3632C6.34013 10.4926 6.18362 10.5573 6 10.5573ZM12 10.5573C11.8164 10.5573 11.6599 10.4926 11.5305 10.3632C11.4013 10.234 11.3366 10.0775 11.3366 9.89371C11.3366 9.71009 11.4013 9.55359 11.5305 9.42421C11.6599 9.29496 11.8164 9.23034 12 9.23034C12.1836 9.23034 12.3401 9.29496 12.4695 9.42421C12.5987 9.55359 12.6634 9.71009 12.6634 9.89371C12.6634 10.0775 12.5987 10.234 12.4695 10.3632C12.3401 10.4926 12.1836 10.5573 12 10.5573ZM9 13.4995C8.81637 13.4995 8.65987 13.4348 8.5305 13.3055C8.40125 13.1762 8.33663 13.0198 8.33663 12.8361C8.33663 12.6524 8.40125 12.4959 8.5305 12.3666C8.65987 12.2373 8.81637 12.1726 9 12.1726C9.18363 12.1726 9.34013 12.2373 9.4695 12.3666C9.59875 12.4959 9.66338 12.6524 9.66338 12.8361C9.66338 13.0198 9.59875 13.1762 9.4695 13.3055C9.34013 13.4348 9.18363 13.4995 9 13.4995ZM6 13.4995C5.81638 13.4995 5.65987 13.4348 5.5305 13.3055C5.40125 13.1762 5.33663 13.0198 5.33663 12.8361C5.33663 12.6524 5.40125 12.4959 5.5305 12.3666C5.65987 12.2373 5.81638 12.1726 6 12.1726C6.18362 12.1726 6.34013 12.2373 6.4695 12.3666C6.59875 12.4959 6.66337 12.6524 6.66337 12.8361C6.66337 13.0198 6.59875 13.1762 6.4695 13.3055C6.34013 13.4348 6.18362 13.4995 6 13.4995ZM12 13.4995C11.8164 13.4995 11.6599 13.4348 11.5305 13.3055C11.4013 13.1762 11.3366 13.0198 11.3366 12.8361C11.3366 12.6524 11.4013 12.4959 11.5305 12.3666C11.6599 12.2373 11.8164 12.1726 12 12.1726C12.1836 12.1726 12.3401 12.2373 12.4695 12.3666C12.5987 12.4959 12.6634 12.6524 12.6634 12.8361C12.6634 13.0198 12.5987 13.1762 12.4695 13.3055C12.3401 13.4348 12.1836 13.4995 12 13.4995Z" fill="#003DA5"/>
</g>
</svg>
