<svg width="17" height="16" viewBox="0 0 17 16" fill="none" xmlns="http://www.w3.org/2000/svg">
<path d="M13.6118 2.66667H10.5907V2C10.5907 0.897333 9.68707 0 8.57664 0C7.46622 0 6.56258 0.897333 6.56258 2V2.66667H3.54148C1.87585 2.66667 0.520386 4.01267 0.520386 5.66667V13C0.520386 14.654 1.87585 16 3.54148 16H13.6118C15.2774 16 16.6329 14.654 16.6329 13V5.66667C16.6329 4.01267 15.2774 2.66667 13.6118 2.66667ZM7.23394 2C7.23394 1.26467 7.83614 0.666667 8.57664 0.666667C9.31715 0.666667 9.91936 1.26467 9.91936 2V4.33333C9.91936 4.51667 9.76897 4.66667 9.58368 4.66667H7.56961C7.38432 4.66667 7.23394 4.51667 7.23394 4.33333V2ZM15.9615 13C15.9615 14.2867 14.9075 15.3333 13.6118 15.3333H3.54148C2.24577 15.3333 1.19174 14.2867 1.19174 13V5.66667C1.19174 4.38 2.24577 3.33333 3.54148 3.33333H6.56258V4.33333C6.56258 4.88467 7.0144 5.33333 7.56961 5.33333H9.58368C10.1389 5.33333 10.5907 4.88467 10.5907 4.33333V3.33333H13.6118C14.9075 3.33333 15.9615 4.38 15.9615 5.66667V13ZM8.57664 10.6667C9.68707 10.6667 10.5907 9.76933 10.5907 8.66667C10.5907 7.564 9.68707 6.66667 8.57664 6.66667C7.46622 6.66667 6.56258 7.564 6.56258 8.66667C6.56258 9.76933 7.46622 10.6667 8.57664 10.6667ZM8.57664 7.33333C9.31715 7.33333 9.91936 7.93133 9.91936 8.66667C9.91936 9.402 9.31715 10 8.57664 10C7.83614 10 7.23394 9.402 7.23394 8.66667C7.23394 7.93133 7.83614 7.33333 8.57664 7.33333ZM11.9234 13.92C11.9677 14.0987 11.8582 14.2793 11.6783 14.3233C11.6508 14.33 11.6239 14.3333 11.5971 14.3333C11.4467 14.3333 11.3097 14.232 11.2715 14.08C10.97 12.8747 9.83678 12 8.57597 12C7.31517 12 6.18192 12.8747 5.88048 14.08C5.8355 14.2587 5.65289 14.366 5.47364 14.3233C5.29372 14.2793 5.18429 14.098 5.2286 13.92C5.60321 12.4213 7.01105 11.3333 8.5753 11.3333C10.1396 11.3333 11.5474 12.4213 11.922 13.92H11.9234Z" fill="white"/>
</svg>
