<svg width="134" height="77" viewBox="0 0 134 77" fill="none" xmlns="http://www.w3.org/2000/svg">
<path d="M71.9521 76.6325C60.1607 76.6325 48.3719 76.6325 36.5805 76.6325C28.6048 76.6325 20.6291 76.5988 12.656 76.6403C7.33112 76.6661 2.69222 73.2931 0.944865 68.7759C0.341705 67.2149 0 65.6151 0 63.9247C0.0181207 51.5146 0.00776601 39.1045 0.00776601 26.6944C0.00517734 18.1415 0.00258867 9.58589 0 1.03292C0 0.0155756 0.00517729 0.00522089 1.051 0.00522089C14.4577 0.00522089 27.8645 0.00522089 41.2738 0.00522089C54.8954 0.00522089 68.5195 4.35447e-05 82.1411 4.35447e-05C94.9007 4.35447e-05 107.663 0.0233416 120.422 4.35447e-05C123.071 -0.0051338 125.574 0.450472 127.844 1.84577C130.956 3.75621 132.944 6.49761 133.695 10.0803C133.896 11.0407 133.982 12.0425 133.982 13.0262C133.997 29.0139 133.992 45.0015 133.992 60.9866C133.992 65.8118 133.995 70.6397 134 75.465C134 76.6247 134 76.6299 132.864 76.6299C119.198 76.6299 105.532 76.6273 91.8668 76.6247C85.2268 76.6247 78.5895 76.6247 71.9495 76.6247V76.6299L71.9521 76.6325ZM44.6028 52.1178C44.5795 51.4499 44.4863 50.9658 43.8521 50.958C43.1635 50.9503 42.4723 50.958 41.7837 50.9762C41.2919 50.9891 41.0434 51.2506 41.0434 51.7553C41.0434 55.6332 41.0434 59.511 41.0356 63.3862C41.0356 63.9014 41.3048 64.1344 41.7941 64.1421C42.2678 64.1473 42.7416 64.137 43.2153 64.137C44.5044 64.137 44.5381 64.1111 44.5381 62.853C44.5407 60.6552 44.5329 58.4574 44.5536 56.2622C44.5562 55.9335 44.6002 55.5322 44.7892 55.2941C45.3354 54.6029 46.0654 54.1395 46.9559 53.992C48.3693 53.759 49.2572 54.4061 49.4695 55.8196C49.5161 56.138 49.5368 56.4616 49.5368 56.7851C49.5446 58.8742 49.5446 60.9633 49.5472 63.0523C49.5472 64.0464 49.6533 64.1447 50.6732 64.1447C51.103 64.1447 51.5353 64.1447 51.965 64.1447C52.9409 64.1421 53.0496 64.0412 53.0522 63.0782C53.0574 60.7743 53.0704 58.4678 53.0419 56.1639C53.0341 55.5607 53.2101 55.1129 53.7279 54.8152C54.155 54.5692 54.5718 54.2612 55.0352 54.1317C56.6634 53.6761 57.8698 54.2198 58.038 56.0008C58.0794 56.4512 58.0924 56.9042 58.0924 57.3546C58.0976 59.3143 58.0872 61.2765 58.0976 63.2361C58.1001 63.9868 58.2736 64.1421 59.0191 64.1473C59.4721 64.1499 59.9252 64.1396 60.3756 64.1396C61.4913 64.1396 61.5767 64.0593 61.5793 62.9151C61.5845 61.3205 61.5974 59.7259 61.5716 58.1338C61.5508 56.8861 61.5508 55.6306 61.4059 54.3958C61.1781 52.4284 59.8423 51.1134 57.8982 50.7742C55.9748 50.4377 54.3207 51.0253 52.8917 52.2912C52.506 52.6329 52.2549 52.6381 51.9572 52.2135C51.7864 51.9702 51.5819 51.7295 51.3411 51.5638C49.5524 50.3471 47.1009 50.3937 45.3225 51.6544C45.1361 51.7864 44.9368 51.9003 44.5925 52.1178H44.6028ZM115.532 54.3699C115.532 54.1965 115.532 54.0256 115.532 53.8522C115.532 51.0745 115.535 48.2943 115.525 45.5167C115.525 44.74 115.359 44.5718 114.644 44.5511C114.106 44.5355 113.568 44.5433 113.029 44.5511C112.175 44.5666 112.02 44.7297 112.02 45.5917C112.02 47.2718 112.014 48.9518 112.02 50.6319C112.02 51.1134 111.895 51.4214 111.339 51.191C110.252 50.7432 109.113 50.6914 107.968 50.7613C105.895 50.8881 104.191 51.7476 102.998 53.4846C101.735 55.3225 101.554 57.3754 101.965 59.4929C102.9 64.3052 108.248 65.7471 111.352 63.1999C111.717 62.8996 111.983 62.8478 112.009 63.4199C112.035 63.9998 112.385 64.1421 112.869 64.1447C113.407 64.1473 113.946 64.1499 114.484 64.1396C115.416 64.124 115.525 64.0205 115.525 63.0886C115.53 60.1815 115.525 57.2744 115.525 54.3647L115.532 54.3699ZM85.1802 55.5659C85.1802 55.5659 85.1958 55.5659 85.2035 55.5659C85.2035 54.3388 85.2242 53.1118 85.188 51.8874C85.1802 51.6078 84.9913 51.1082 84.8463 51.0926C84.0231 51.0124 83.0964 50.8234 82.3819 51.1082C81.7373 51.3645 81.2869 51.3334 80.7096 51.1315C77.9475 50.1737 74.6469 50.8881 72.8892 53.249C71.2739 55.4183 71.1186 57.8077 71.8771 60.298C73.2387 64.766 78.9208 65.7031 81.6804 62.721C82.0221 62.3508 82.2136 62.4543 82.5424 62.8038C83.0187 63.3086 83.5908 63.7435 84.1836 64.1137C84.6522 64.4062 85.0948 64.2327 85.3563 63.7098C85.6255 63.1714 85.8973 62.6329 86.1743 62.0997C86.3892 61.6881 86.3866 61.3205 86.0034 61.0047C85.3873 60.4999 85.188 59.8139 85.1828 59.0528C85.1751 57.8905 85.1828 56.7282 85.1828 55.5659H85.1802ZM25.2344 57.5669C25.1412 61.4163 28.1259 64.4476 32.4982 64.4528C36.4537 64.458 39.5161 61.4085 39.4747 57.51C39.4332 53.5493 36.4847 50.7276 32.4438 50.7121C28.1415 50.6992 25.1955 53.57 25.2344 57.5643V57.5669ZM68.3254 59.9433C68.3254 59.9433 68.3332 59.9433 68.3383 59.9433C68.3383 58.2633 68.3487 56.5832 68.3332 54.9032C68.328 54.388 68.504 54.1447 69.0451 54.168C69.6042 54.1913 70.1659 54.1706 70.7251 54.168C71.2739 54.1628 71.569 53.8988 71.5716 53.337C71.5716 52.8193 71.5716 52.3041 71.5768 51.7864C71.5819 51.2868 71.3283 51.0098 70.839 50.9917C70.2151 50.9684 69.5887 50.958 68.9674 50.9839C68.473 51.002 68.3202 50.7898 68.3565 50.3238C68.46 49.0114 69.2366 48.1312 70.5439 47.8931C70.8183 47.8439 71.1005 47.8335 71.3774 47.7895C71.7813 47.7248 71.9884 47.5073 71.9237 47.0724C71.8408 46.4978 71.7683 45.9205 71.6933 45.3432C71.6208 44.7815 71.2739 44.5692 70.7458 44.6158C70.2954 44.6546 69.8424 44.6935 69.3997 44.7789C67.4504 45.1491 65.9361 46.1017 65.2889 48.0717C65.0714 48.7344 64.9834 49.454 64.942 50.1555C64.9083 50.7199 64.7479 50.9632 64.1499 50.9658C62.6251 50.9736 62.6251 50.9969 62.6329 52.5423C62.6329 52.5863 62.6329 52.6277 62.6329 52.6717C62.6433 54.1317 62.6433 54.1525 64.0852 54.155C64.6754 54.155 64.8721 54.3803 64.8695 54.9653C64.8488 57.831 64.8643 60.694 64.8618 63.5597C64.8618 65.0534 64.388 65.7678 63.0005 66.3166C62.4828 66.5211 62.2964 66.8447 62.4336 67.3702C62.576 67.9112 62.7132 68.4549 62.8659 68.9933C62.9772 69.3868 63.2412 69.6897 63.6606 69.5809C64.5278 69.3583 65.4416 69.1797 66.2208 68.7655C67.7973 67.9268 68.2762 66.4046 68.3176 64.7298C68.3565 63.1377 68.3254 61.5431 68.3254 59.9485V59.9433ZM91.4914 52.0453C91.4086 51.9107 91.3335 51.8434 91.3283 51.7683C91.2688 51.1004 90.8598 50.9166 90.254 50.9477C89.7803 50.971 89.3066 50.9399 88.8329 50.9477C87.9165 50.9606 87.7482 51.1289 87.7482 52.0608C87.7482 54.8825 87.7534 57.7041 87.7586 60.5284C87.7586 61.4344 87.7508 62.3378 87.7637 63.2439C87.7767 63.9894 87.9424 64.137 88.6982 64.1447C89.1927 64.1499 89.6897 64.1525 90.1841 64.1473C91.1653 64.137 91.2559 64.0464 91.2662 63.0756C91.2895 60.7484 91.2947 58.4238 91.349 56.0965C91.3568 55.7471 91.5044 55.3122 91.7425 55.0714C92.4285 54.3777 93.3087 54.0178 94.2924 53.9557C95.377 53.8858 96.1717 54.344 96.5134 55.3536C96.6946 55.892 96.7387 56.4926 96.7464 57.0673C96.7749 59.1357 96.7671 61.204 96.7568 63.2724C96.7542 63.8677 97.0131 64.1525 97.6085 64.1447C98.2556 64.137 98.9028 64.1318 99.5474 64.1447C100.063 64.1551 100.293 63.9247 100.29 63.407C100.28 60.8002 100.334 58.1908 100.257 55.5866C100.213 54.1421 99.8011 52.7598 98.6051 51.789C96.8241 50.3419 94.0309 50.2979 92.1386 51.644C91.9367 51.7864 91.7166 51.9055 91.4862 52.0479L91.4914 52.0453ZM19.7153 64.4114C21.1831 64.4217 22.5784 64.1266 23.896 63.4665C24.4164 63.205 24.6157 62.8245 24.4241 62.2524C24.2662 61.7839 24.142 61.305 23.9996 60.8312C23.8106 60.2074 23.5569 60.1064 22.9356 60.3497C22.2962 60.6008 21.6594 60.8908 20.9915 61.0383C18.245 61.6518 16.1973 60.1349 16.13 57.4815C16.0886 55.8403 17.0309 54.445 18.5323 54.0567C19.8059 53.7279 20.9061 54.1369 21.8303 55.0533C22.4024 55.6202 22.5862 55.6228 23.1608 55.0559C23.5 54.7246 23.8235 54.3777 24.1627 54.0489C24.5846 53.6399 24.5717 53.2671 24.1704 52.8245C23.0547 51.5974 21.6491 50.9503 20.0337 50.7975C18.043 50.6086 16.1404 50.9089 14.6105 52.3352C12.5499 54.2534 12.0606 56.6738 12.669 59.3194C12.8761 60.2125 13.2851 61.1341 13.839 61.8615C15.2939 63.772 17.37 64.4373 19.7101 64.4114H19.7153ZM118.033 57.598H118.038C118.038 59.4929 118.043 61.3878 118.036 63.2827C118.033 63.8677 118.263 64.1706 118.88 64.1499C119.483 64.1318 120.086 64.1318 120.689 64.1396C121.256 64.1473 121.512 63.8755 121.512 63.3138C121.512 59.4799 121.512 55.6487 121.523 51.8149C121.523 51.2402 121.222 50.9865 120.692 50.9658C120.153 50.9451 119.615 50.9373 119.076 50.958C118.17 50.9917 118.036 51.1418 118.033 52.0401C118.03 53.891 118.033 55.7445 118.033 57.5954V57.598ZM119.827 49.1537C121.013 49.1563 121.981 48.2166 121.989 47.0543C121.996 45.8584 121.031 44.9238 119.793 44.9316C118.644 44.9368 117.733 45.9127 117.73 47.132C117.73 48.2115 118.704 49.1486 119.827 49.1537Z" fill="#05C3DD"/>
<path d="M44.5998 52.1152C44.9441 51.8977 45.1434 51.7838 45.3298 51.6518C47.1082 50.3937 49.5571 50.3445 51.3485 51.5612C51.5892 51.7269 51.7963 51.9676 51.9646 52.211C52.2623 52.6355 52.5134 52.6329 52.8991 52.2886C54.328 51.0228 55.9796 50.4351 57.9056 50.7717C59.8497 51.1108 61.1854 52.4258 61.4132 54.3932C61.5556 55.6306 61.5582 56.8835 61.5789 58.1313C61.6048 59.7259 61.5918 61.3205 61.5867 62.9125C61.5815 64.0567 61.4961 64.1344 60.3829 64.137C59.9299 64.137 59.4769 64.1473 59.0265 64.1447C58.2809 64.1396 58.1075 63.9843 58.1049 63.2335C58.0945 61.2739 58.1049 59.3143 58.0997 57.3521C58.0997 56.9016 58.0868 56.446 58.0454 55.9982C57.8771 54.2172 56.6708 53.6736 55.0425 54.1292C54.5791 54.2586 54.1624 54.5693 53.7352 54.8126C53.2175 55.1077 53.0415 55.5555 53.0492 56.1613C53.0777 58.4652 53.0648 60.7717 53.0596 63.0756C53.0596 64.0412 52.9483 64.1396 51.9723 64.1422C51.5426 64.1422 51.1103 64.1422 50.6806 64.1422C49.6607 64.1422 49.5571 64.0438 49.5545 63.0497C49.5519 60.9607 49.5545 58.8716 49.5442 56.7826C49.5442 56.4616 49.5235 56.1354 49.4769 55.817C49.2646 54.4036 48.3767 53.7564 46.9633 53.9894C46.0728 54.1369 45.3428 54.6003 44.7965 55.2915C44.6076 55.5296 44.5636 55.9309 44.561 56.2597C44.5403 58.4574 44.548 60.6552 44.5454 62.8504C44.5454 64.1059 44.5118 64.137 43.2226 64.1344C42.7489 64.1344 42.2752 64.1447 41.8014 64.1396C41.3122 64.1344 41.043 63.8988 41.043 63.3837C41.0481 59.5058 41.0507 55.628 41.0507 51.7528C41.0507 51.2454 41.2967 50.9865 41.7911 50.9736C42.4797 50.9555 43.1709 50.9451 43.8594 50.9555C44.4963 50.9632 44.5869 51.4499 44.6102 52.1152H44.5998Z" fill="white"/>
<path d="M115.53 54.3699C115.53 57.277 115.533 60.1841 115.53 63.0938C115.53 64.0257 115.421 64.1266 114.49 64.1448C113.951 64.1551 113.413 64.1525 112.874 64.1499C112.39 64.1473 112.041 64.005 112.015 63.4251C111.989 62.853 111.722 62.9048 111.357 63.2051C108.253 65.7523 102.905 64.313 101.971 59.4981C101.559 57.3806 101.74 55.3277 103.004 53.4898C104.197 51.7528 105.9 50.8933 107.974 50.7665C109.118 50.6966 110.257 50.7484 111.344 51.1962C111.901 51.4266 112.028 51.116 112.025 50.6371C112.02 48.957 112.023 47.277 112.025 45.5969C112.025 44.7375 112.18 44.5744 113.035 44.5563C113.573 44.5459 114.112 44.5382 114.65 44.5563C115.367 44.577 115.528 44.7453 115.53 45.5219C115.541 48.2995 115.535 51.0797 115.538 53.8574C115.538 54.0308 115.538 54.2017 115.538 54.3751L115.53 54.3699ZM112.023 56.6557C112.036 55.2147 111.386 54.3544 110.071 54.0748C110.029 54.0671 109.988 54.0515 109.944 54.0464C108.862 53.948 107.787 53.8859 106.845 54.5926C105.468 55.628 105.186 57.044 105.489 58.6283C105.735 59.9045 106.514 60.7614 107.787 61.0539C109.022 61.3361 110.125 61.0591 111.016 60.0831C111.953 59.0554 112.036 57.8025 112.017 56.6557H112.023Z" fill="white"/>
<path d="M85.1795 55.5657C85.1795 56.728 85.1743 57.8903 85.1795 59.0527C85.1847 59.8137 85.384 60.4997 86.0001 61.0045C86.3858 61.3203 86.3858 61.6879 86.1709 62.0995C85.894 62.6328 85.6221 63.1712 85.3529 63.7097C85.0915 64.2352 84.6488 64.406 84.1803 64.1135C83.5875 63.7459 83.0154 63.3084 82.539 62.8036C82.2103 62.4542 82.0161 62.3506 81.677 62.7208C78.9201 65.703 73.238 64.7659 71.8737 60.2978C71.1127 57.8049 71.2706 55.4156 72.8859 53.2489C74.641 50.8906 77.9442 50.1735 80.7063 51.1313C81.2861 51.3332 81.734 51.3643 82.3785 51.108C83.0956 50.8233 84.0198 51.0122 84.843 51.0925C84.9879 51.1054 85.1769 51.6051 85.1847 51.8872C85.2209 53.1117 85.2002 54.3413 85.2002 55.5657C85.1924 55.5657 85.1847 55.5657 85.1769 55.5657H85.1795ZM81.734 56.6141C81.721 54.538 81.5191 54.3076 79.6138 54.0513C79.443 54.028 79.2695 54.0177 79.0987 54.0047C76.4375 53.8417 74.8507 55.5036 75.1277 58.1622C75.2856 59.6843 76.0467 60.6395 77.4135 61.0304C78.7233 61.4032 80.0694 60.9683 80.9185 59.8318C81.6641 58.8326 81.8194 57.6625 81.7391 56.6115L81.734 56.6141Z" fill="white"/>
<path d="M25.2326 57.5671C25.1964 53.5728 28.1423 50.7019 32.442 50.7149C36.483 50.7278 39.4315 53.5495 39.4729 57.5127C39.5143 61.4113 36.4519 64.4607 32.4964 64.4556C28.1216 64.4504 25.1394 61.419 25.2326 57.5697V57.5671ZM35.784 57.6059C35.9135 55.6592 34.5622 54.1293 32.6155 54.0103C30.6377 53.8886 28.9784 55.2684 28.8671 57.127C28.7325 59.3662 29.9957 60.9945 31.9606 61.1524C33.8969 61.3077 35.8332 60.0781 35.784 57.6085V57.6059Z" fill="white"/>
<path d="M68.3231 59.9434C68.3231 61.538 68.3542 63.1326 68.3153 64.7246C68.2739 66.3969 67.795 67.9216 66.2185 68.7604C65.4393 69.1746 64.5281 69.3532 63.6583 69.5758C63.239 69.6845 62.9749 69.3817 62.8636 68.9882C62.7109 68.4497 62.5737 67.9061 62.4313 67.3651C62.2915 66.8396 62.4805 66.5134 62.9982 66.3115C64.3883 65.7627 64.8595 65.0482 64.8595 63.5546C64.8595 60.6889 64.8465 57.8258 64.8672 54.9602C64.8724 54.3751 64.6731 54.1525 64.0829 54.1499C62.6384 54.1447 62.6384 54.1266 62.6306 52.6666C62.6306 52.6226 62.6306 52.5812 62.6306 52.5372C62.6229 50.9917 62.6229 50.971 64.1476 50.9607C64.7456 50.9581 64.9087 50.7147 64.9397 50.1504C64.9811 49.4489 65.0692 48.7292 65.2866 48.0665C65.9312 46.0966 67.4481 45.1439 69.3974 44.7738C69.8401 44.6883 70.2931 44.6521 70.7435 44.6107C71.2716 44.5641 71.6185 44.7789 71.691 45.3381C71.766 45.9154 71.8359 46.4926 71.9214 47.0673C71.9835 47.5022 71.779 47.7197 71.3752 47.7844C71.0982 47.8284 70.816 47.8387 70.5416 47.8879C69.2343 48.1261 68.4577 49.0088 68.3542 50.3187C68.3179 50.7872 68.4681 50.9995 68.9651 50.9788C69.589 50.9555 70.2154 50.9633 70.8367 50.9866C71.326 51.0047 71.5771 51.2817 71.5745 51.7813C71.5693 52.299 71.5719 52.8142 71.5693 53.3319C71.5693 53.8936 71.2716 54.1577 70.7228 54.1629C70.1637 54.168 69.6019 54.1887 69.0428 54.1629C68.5017 54.1396 68.3257 54.3829 68.3309 54.898C68.349 56.5781 68.3361 58.2581 68.3361 59.9382C68.3309 59.9382 68.3283 59.9382 68.3231 59.9382V59.9434Z" fill="white"/>
<path d="M91.49 52.0455C91.723 51.9031 91.9404 51.7841 92.1423 51.6417C94.0347 50.2956 96.8278 50.3396 98.6088 51.7866C99.8048 52.7574 100.216 54.1398 100.26 55.5842C100.338 58.1884 100.284 60.7978 100.294 63.4046C100.294 63.9223 100.066 64.1527 99.5511 64.1424C98.9039 64.1294 98.2568 64.1372 97.6122 64.1424C97.0194 64.1476 96.7579 63.8654 96.7605 63.27C96.7709 61.2016 96.7761 59.1333 96.7502 57.065C96.7424 56.4903 96.6958 55.8897 96.5172 55.3513C96.1781 54.3417 95.3808 53.8835 94.2961 53.9534C93.315 54.0155 92.4349 54.3779 91.7463 55.0691C91.5081 55.3098 91.3606 55.7447 91.3528 56.0942C91.2984 58.4188 91.2907 60.746 91.27 63.0733C91.2596 64.044 91.169 64.1346 90.1879 64.145C89.6935 64.1501 89.1964 64.145 88.702 64.1424C87.9435 64.1346 87.7778 63.9845 87.7675 63.2415C87.752 62.3381 87.7623 61.432 87.7623 60.526C87.7597 57.7044 87.752 54.8827 87.752 52.0585C87.752 51.1265 87.9202 50.9583 88.8366 50.9453C89.3103 50.9376 89.7866 50.9686 90.2578 50.9453C90.8609 50.9143 91.27 51.0981 91.3321 51.7659C91.3398 51.8384 91.4123 51.9057 91.4952 52.0429L91.49 52.0455Z" fill="white"/>
<path d="M19.7106 64.4116C17.373 64.4374 15.2943 63.7747 13.8395 61.8617C13.2855 61.1343 12.8765 60.2153 12.6694 59.3196C12.061 56.674 12.5503 54.2536 14.6109 52.3354C16.1408 50.9116 18.0435 50.6088 20.0342 50.7977C21.6495 50.953 23.0551 51.5976 24.1709 52.8247C24.5721 53.2673 24.585 53.6375 24.1631 54.0491C23.824 54.3779 23.4978 54.7247 23.1613 55.0561C22.584 55.6204 22.4002 55.6204 21.8307 55.0535C20.9065 54.1345 19.8064 53.7281 18.5327 54.0569C17.0313 54.4452 16.089 55.8405 16.1304 57.4817C16.1977 60.1351 18.2428 61.652 20.992 61.0385C21.6573 60.891 22.2941 60.601 22.9361 60.3499C23.5573 60.1066 23.811 60.205 24 60.8314C24.1424 61.3052 24.2666 61.7841 24.4245 62.2526C24.6161 62.8273 24.4168 63.2052 23.8965 63.4667C22.5788 64.1268 21.1835 64.4219 19.7132 64.409L19.7106 64.4116Z" fill="white"/>
<path d="M118.029 57.5983C118.029 55.7474 118.029 53.8939 118.029 52.043C118.029 51.1421 118.166 50.9946 119.073 50.9609C119.611 50.9402 120.149 50.948 120.688 50.9687C121.219 50.9894 121.519 51.2431 121.519 51.8178C121.508 55.6516 121.508 59.4828 121.508 63.3166C121.508 63.881 121.252 64.1502 120.685 64.1424C120.082 64.1347 119.479 64.1321 118.876 64.1528C118.262 64.1735 118.029 63.8706 118.032 63.2856C118.042 61.3907 118.034 59.4958 118.034 57.6009H118.029V57.5983Z" fill="white"/>
<path d="M119.823 49.1538C118.7 49.1512 117.727 48.2115 117.727 47.1321C117.727 45.9128 118.64 44.9369 119.79 44.9317C121.027 44.9239 121.993 45.8584 121.985 47.0544C121.977 48.2167 121.012 49.1564 119.823 49.1538Z" fill="white"/>
<path d="M112.021 56.6555C112.04 57.8049 111.957 59.0552 111.02 60.0829C110.129 61.0588 109.026 61.3384 107.792 61.0536C106.515 60.7611 105.736 59.9043 105.493 58.6281C105.19 57.0438 105.472 55.6278 106.849 54.5923C107.792 53.8856 108.866 53.9477 109.948 54.0461C109.989 54.0487 110.031 54.0642 110.075 54.0746C111.388 54.3542 112.039 55.2145 112.027 56.6555H112.021Z" fill="#05C3DD"/>
<path d="M81.734 56.6144C81.8168 57.6654 81.6589 58.8355 80.9134 59.8347C80.0669 60.9711 78.7182 61.406 77.4083 61.0332C76.0415 60.6424 75.2804 59.6871 75.1225 58.165C74.8481 55.5064 76.4324 53.8445 79.0935 54.0076C79.2644 54.0179 79.4378 54.0309 79.6087 54.0542C81.5139 54.3105 81.7184 54.5409 81.7288 56.617L81.734 56.6144Z" fill="#05C3DD"/>
<path d="M35.7842 57.6059C35.8333 60.0781 33.897 61.3051 31.9607 61.1498C29.9959 60.9919 28.7326 59.3636 28.8672 57.1244C28.9785 55.2658 30.6379 53.8886 32.6156 54.0077C34.5623 54.1267 35.9136 55.6592 35.7842 57.6033V57.6059Z" fill="#05C3DD"/>
</svg>
