<svg width="122" height="70" viewBox="0 0 122 70" fill="none" xmlns="http://www.w3.org/2000/svg">
<path d="M65.5087 69.7699C54.7732 69.7699 44.0401 69.7699 33.3046 69.7699C26.0432 69.7699 18.7817 69.7392 11.5226 69.7769C6.6746 69.8005 2.45112 66.7295 0.86025 62.6168C0.311104 61.1957 0 59.7391 0 58.2001C0.016498 46.9014 0.00707055 35.6026 0.00707055 24.3039C0.0047137 16.5168 0.00235685 8.72746 0 0.940423C0 0.0141808 0.0047137 0.00475335 0.956881 0.00475335C13.163 0.00475335 25.3691 0.00475335 37.5776 0.00475335C49.9794 0.00475335 62.3835 3.96452e-05 74.7852 3.96452e-05C86.4021 3.96452e-05 98.0214 0.0212513 109.638 3.96452e-05C112.049 -0.00467405 114.328 0.410132 116.395 1.68047C119.228 3.41983 121.038 5.91573 121.722 9.17761C121.906 10.052 121.983 10.9641 121.983 11.8597C121.998 26.4156 121.993 40.9715 121.993 55.5251C121.993 59.9182 121.995 64.3138 122 68.7069C122 69.7628 122 69.7675 120.965 69.7675C108.524 69.7675 96.0817 69.7652 83.6399 69.7628C77.5946 69.7628 71.5516 69.7628 65.5063 69.7628V69.7675L65.5087 69.7699ZM40.6085 47.4505C40.5873 46.8424 40.5025 46.4017 39.925 46.3946C39.2981 46.3876 38.6688 46.3946 38.0419 46.4111C37.5941 46.4229 37.3679 46.661 37.3679 47.1205C37.3679 50.6511 37.3679 54.1817 37.3608 57.7099C37.3608 58.1789 37.6059 58.391 38.0513 58.3981C38.4827 58.4028 38.914 58.3934 39.3453 58.3934C40.519 58.3934 40.5496 58.3698 40.5496 57.2244C40.552 55.2234 40.5449 53.2224 40.5637 51.2238C40.5661 50.9245 40.6062 50.5592 40.7782 50.3424C41.2755 49.7131 41.9401 49.2912 42.7509 49.1569C44.0377 48.9447 44.8461 49.534 45.0394 50.8208C45.0818 51.1107 45.1007 51.4053 45.1007 51.6999C45.1078 53.6019 45.1078 55.5039 45.1101 57.4058C45.1101 58.3109 45.2067 58.4004 46.1353 58.4004C46.5266 58.4004 46.9202 58.4004 47.3114 58.4004C48.1999 58.3981 48.2989 58.3062 48.3013 57.4294C48.306 55.3318 48.3178 53.2319 48.2919 51.1343C48.2848 50.5851 48.4451 50.1774 48.9164 49.9063C49.3053 49.6824 49.6848 49.402 50.1066 49.2841C51.5891 48.8693 52.6874 49.3643 52.8406 50.9858C52.8783 51.3959 52.8901 51.8083 52.8901 52.2184C52.8948 54.0025 52.8854 55.789 52.8948 57.5732C52.8971 58.2567 53.0551 58.3981 53.7338 58.4028C54.1463 58.4051 54.5587 58.3957 54.9688 58.3957C55.9846 58.3957 56.0624 58.3227 56.0648 57.2809C56.0695 55.8291 56.0813 54.3773 56.0577 52.9278C56.0388 51.7918 56.0388 50.6488 55.9068 49.5245C55.6994 47.7333 54.4833 46.536 52.7133 46.2273C50.9622 45.9209 49.4561 46.4559 48.1552 47.6084C47.804 47.9195 47.5754 47.9242 47.3043 47.5377C47.1488 47.3162 46.9626 47.097 46.7434 46.9461C45.1148 45.8384 42.8829 45.8808 41.2637 47.0286C41.094 47.1488 40.9126 47.2525 40.5991 47.4505H40.6085ZM105.186 49.501C105.186 49.3431 105.186 49.1875 105.186 49.0296C105.186 46.5007 105.189 43.9694 105.179 41.4405C105.179 40.7335 105.028 40.5803 104.378 40.5614C103.888 40.5473 103.397 40.5544 102.907 40.5614C102.129 40.5756 101.988 40.7241 101.988 41.5089C101.988 43.0385 101.983 44.5681 101.988 46.0977C101.988 46.536 101.875 46.8165 101.368 46.6068C100.378 46.199 99.3412 46.1519 98.2995 46.2155C96.4117 46.331 94.8609 47.1135 93.7744 48.6949C92.6242 50.3683 92.4592 52.2373 92.834 54.1652C93.6848 58.5466 98.554 59.8593 101.38 57.5402C101.712 57.2668 101.955 57.2196 101.979 57.7405C102.002 58.2684 102.32 58.3981 102.761 58.4004C103.251 58.4028 103.741 58.4051 104.232 58.3957C105.08 58.3816 105.179 58.2873 105.179 57.4388C105.184 54.7921 105.179 52.1453 105.179 49.4962L105.186 49.501ZM77.5522 50.5898C77.5522 50.5898 77.5663 50.5898 77.5734 50.5898C77.5734 49.4727 77.5922 48.3555 77.5592 47.2407C77.5522 46.9862 77.3801 46.5313 77.2481 46.5172C76.4986 46.4441 75.6549 46.2721 75.0044 46.5313C74.4175 46.7647 74.0075 46.7364 73.4819 46.5525C70.9671 45.6805 67.9621 46.331 66.3618 48.4804C64.8912 50.4555 64.7497 52.6309 65.4403 54.8981C66.68 58.9661 71.8533 59.8192 74.3657 57.1042C74.6768 56.7671 74.8512 56.8614 75.1505 57.1796C75.5842 57.6392 76.105 58.0351 76.6448 58.3721C77.0714 58.6385 77.4744 58.4806 77.7124 58.0045C77.9575 57.5143 78.205 57.024 78.4572 56.5385C78.6528 56.1638 78.6505 55.8291 78.3016 55.5416C77.7407 55.082 77.5592 54.4574 77.5545 53.7645C77.5474 52.7063 77.5545 51.648 77.5545 50.5898H77.5522ZM22.9746 52.4117C22.8897 55.9163 25.6072 58.6762 29.5879 58.6809C33.1892 58.6856 35.9773 55.9092 35.9396 52.3598C35.9019 48.7538 33.2174 46.1849 29.5384 46.1707C25.6213 46.1589 22.9392 48.7727 22.9746 52.4093V52.4117ZM62.2067 54.5753C62.2067 54.5753 62.2138 54.5753 62.2185 54.5753C62.2185 53.0457 62.2279 51.5161 62.2138 49.9865C62.2091 49.5175 62.3693 49.2959 62.8619 49.3171C63.371 49.3383 63.8824 49.3195 64.3915 49.3171C64.8912 49.3124 65.1598 49.072 65.1622 48.5606C65.1622 48.0892 65.1622 47.6202 65.1669 47.1488C65.1716 46.694 64.9407 46.4418 64.4952 46.4253C63.9272 46.4041 63.3568 46.3946 62.7912 46.4182C62.341 46.4347 62.202 46.2414 62.235 45.8172C62.3293 44.6223 63.0363 43.8209 64.2265 43.6041C64.4764 43.5593 64.7333 43.5499 64.9854 43.5098C65.3531 43.4509 65.5416 43.253 65.4827 42.857C65.4073 42.3338 65.3413 41.8082 65.273 41.2826C65.207 40.7712 64.8912 40.5779 64.4104 40.6203C64.0003 40.6557 63.5878 40.6911 63.1848 40.7688C61.4101 41.1059 60.0313 41.9732 59.4421 43.7667C59.2441 44.3701 59.164 45.0253 59.1263 45.664C59.0957 46.1778 58.9495 46.3993 58.4051 46.4017C57.0169 46.4088 57.0169 46.43 57.024 47.837C57.024 47.8771 57.024 47.9148 57.024 47.9549C57.0334 49.2841 57.0334 49.303 58.3462 49.3053C58.8835 49.3053 59.0627 49.5104 59.0603 50.043C59.0415 52.6521 59.0556 55.2587 59.0532 57.8678C59.0532 59.2277 58.6219 59.8782 57.3587 60.3778C56.8873 60.564 56.7176 60.8586 56.8425 61.3371C56.9721 61.8296 57.0971 62.3246 57.2361 62.8148C57.3375 63.173 57.5779 63.4488 57.9597 63.3498C58.7492 63.1471 59.5812 62.9845 60.2906 62.6074C61.7259 61.8438 62.1619 60.458 62.1996 58.9331C62.235 57.4836 62.2067 56.0318 62.2067 54.58V54.5753ZM83.2982 47.3845C83.2227 47.262 83.1544 47.2007 83.1497 47.1323C83.0955 46.5243 82.7231 46.3569 82.1716 46.3852C81.7403 46.4064 81.309 46.3781 80.8777 46.3852C80.0434 46.397 79.8902 46.5502 79.8902 47.3987C79.8902 49.9676 79.8949 52.5366 79.8996 55.1079C79.8996 55.9328 79.8925 56.7553 79.9043 57.5802C79.9161 58.259 80.0669 58.3934 80.7551 58.4004C81.2053 58.4051 81.6578 58.4075 82.1079 58.4028C83.0012 58.3934 83.0837 58.3109 83.0931 57.427C83.1143 55.3082 83.119 53.1918 83.1685 51.073C83.1756 50.7548 83.3099 50.3589 83.5268 50.1397C84.1513 49.508 84.9527 49.1804 85.8483 49.1239C86.8358 49.0602 87.5593 49.4774 87.8704 50.3966C88.0354 50.8868 88.0755 51.4336 88.0826 51.9568C88.1085 53.8399 88.1014 55.723 88.092 57.6062C88.0896 58.1482 88.3253 58.4075 88.8674 58.4004C89.4566 58.3934 90.0458 58.3886 90.6327 58.4004C91.1017 58.4099 91.3114 58.2001 91.3091 57.7287C91.2997 55.3554 91.3492 52.9797 91.2785 50.6087C91.2384 49.2936 90.8636 48.035 89.7748 47.1512C88.1533 45.8337 85.6102 45.7936 83.8874 47.0192C83.7035 47.1488 83.5032 47.2572 83.2934 47.3869L83.2982 47.3845ZM17.9498 58.6432C19.2861 58.6526 20.5564 58.3839 21.7561 57.7829C22.2298 57.5449 22.4113 57.1984 22.2369 56.6776C22.0931 56.251 21.98 55.815 21.8504 55.3837C21.6783 54.8157 21.4473 54.7237 20.8817 54.9453C20.2996 55.1739 19.7198 55.4379 19.1117 55.5722C16.6111 56.1308 14.7468 54.7497 14.6855 52.3339C14.6478 50.8397 15.5057 49.5693 16.8727 49.2158C18.0323 48.9165 19.0339 49.2888 19.8753 50.1232C20.3962 50.6393 20.5635 50.6417 21.0867 50.1255C21.3955 49.8238 21.6901 49.508 21.9988 49.2087C22.383 48.8363 22.3712 48.4969 22.0059 48.0939C20.9901 46.9768 19.7103 46.3876 18.2397 46.2485C16.4272 46.0765 14.695 46.3499 13.3021 47.6485C11.426 49.3949 10.9806 51.5986 11.5344 54.0073C11.723 54.8204 12.0954 55.6594 12.5997 56.3217C13.9243 58.061 15.8145 58.6668 17.9451 58.6432H17.9498ZM107.463 52.44H107.468C107.468 54.1652 107.472 55.8904 107.465 57.6156C107.463 58.1482 107.673 58.424 108.234 58.4051C108.783 58.3886 109.332 58.3886 109.881 58.3957C110.397 58.4028 110.631 58.1553 110.631 57.6439C110.631 54.1534 110.631 50.6652 110.64 47.1748C110.64 46.6515 110.367 46.4206 109.883 46.4017C109.393 46.3829 108.903 46.3758 108.413 46.3946C107.588 46.4253 107.465 46.562 107.463 47.3798C107.461 49.0649 107.463 50.7524 107.463 52.4376V52.44ZM109.096 44.7519C110.176 44.7543 111.057 43.8987 111.064 42.8405C111.071 41.7516 110.192 40.9008 109.066 40.9079C108.019 40.9126 107.19 41.8011 107.187 42.9112C107.187 43.894 108.073 44.7472 109.096 44.7519Z" fill="#003DA5"/>
<path d="M40.6055 47.4484C40.919 47.2504 41.1004 47.1467 41.2701 47.0265C42.8893 45.8811 45.1189 45.8363 46.7498 46.944C46.969 47.0948 47.1575 47.314 47.3107 47.5356C47.5818 47.9221 47.8104 47.9197 48.1616 47.6063C49.4625 46.4538 50.9662 45.9188 52.7197 46.2252C54.4897 46.5339 55.7058 47.7312 55.9132 49.5224C56.0429 50.649 56.0452 51.7897 56.0641 52.9257C56.0876 54.3775 56.0759 55.8293 56.0712 57.2788C56.0664 58.3205 55.9887 58.3912 54.9752 58.3936C54.5628 58.3936 54.1503 58.403 53.7402 58.4007C53.0615 58.3959 52.9035 58.2545 52.9012 57.571C52.8918 55.7869 52.9012 54.0028 52.8965 52.2163C52.8965 51.8062 52.8847 51.3914 52.847 50.9837C52.6938 49.3621 51.5955 48.8672 50.113 49.282C49.6912 49.3998 49.3117 49.6827 48.9228 49.9042C48.4515 50.1729 48.2912 50.5806 48.2983 51.1321C48.3242 53.2297 48.3124 55.3297 48.3077 57.4273C48.3077 58.3064 48.2063 58.3959 47.3178 58.3983C46.9266 58.3983 46.533 58.3983 46.1417 58.3983C45.2131 58.3983 45.1189 58.3087 45.1165 57.4037C45.1142 55.5017 45.1165 53.5998 45.1071 51.6978C45.1071 51.4055 45.0882 51.1086 45.0458 50.8187C44.8525 49.5318 44.0441 48.9426 42.7573 49.1547C41.9465 49.2891 41.2819 49.711 40.7846 50.3402C40.6126 50.5571 40.5725 50.9224 40.5701 51.2217C40.5513 53.2227 40.5584 55.2236 40.556 57.2222C40.556 58.3653 40.5254 58.3936 39.3517 58.3912C38.9204 58.3912 38.489 58.4007 38.0577 58.3959C37.6123 58.3912 37.3672 58.1768 37.3672 57.7077C37.3719 54.1772 37.3743 50.6466 37.3743 47.1184C37.3743 46.6565 37.5982 46.4208 38.0483 46.409C38.6752 46.3925 39.3045 46.3831 39.9314 46.3925C40.5112 46.3996 40.5937 46.8427 40.6149 47.4484H40.6055Z" fill="white"/>
<path d="M105.183 49.5009C105.183 52.1476 105.185 54.7944 105.183 57.4435C105.183 58.2919 105.084 58.3838 104.236 58.4003C103.745 58.4098 103.255 58.4074 102.765 58.4051C102.324 58.4027 102.006 58.2731 101.982 57.7451C101.959 57.2243 101.716 57.2714 101.384 57.5448C98.5579 59.8639 93.6887 58.5535 92.8378 54.1698C92.4631 52.2419 92.6281 50.3729 93.7782 48.6995C94.8647 47.1181 96.4155 46.3356 98.3034 46.2201C99.3451 46.1565 100.382 46.2036 101.372 46.6114C101.879 46.8211 101.994 46.5383 101.992 46.1023C101.987 44.5727 101.989 43.0431 101.992 41.5135C101.992 40.731 102.133 40.5825 102.911 40.566C103.401 40.5566 103.891 40.5496 104.382 40.566C105.035 40.5849 105.181 40.7381 105.183 41.4452C105.192 43.9741 105.188 46.5053 105.19 49.0342C105.19 49.1921 105.19 49.3477 105.19 49.5056L105.183 49.5009ZM101.989 51.582C102.002 50.27 101.41 49.4867 100.212 49.2322C100.175 49.2251 100.137 49.211 100.097 49.2063C99.1118 49.1167 98.1337 49.0601 97.2758 49.7036C96.0219 50.6463 95.7651 51.9355 96.0408 53.3779C96.2647 54.5398 96.9741 55.3199 98.1337 55.5863C99.2579 55.8432 100.262 55.591 101.073 54.7024C101.926 53.7668 102.001 52.6261 101.985 51.582H101.989Z" fill="white"/>
<path d="M77.5501 50.5898C77.5501 51.648 77.5454 52.7062 77.5501 53.7644C77.5548 54.4573 77.7363 55.0819 78.2972 55.5415C78.6484 55.829 78.6484 56.1637 78.4527 56.5384C78.2006 57.024 77.9531 57.5142 77.708 58.0044C77.4699 58.4828 77.0669 58.6384 76.6403 58.3721C76.1006 58.0374 75.5797 57.6391 75.1461 57.1795C74.8468 56.8613 74.67 56.7671 74.3613 57.1041C71.8512 59.8192 66.6779 58.966 65.4359 54.8981C64.743 52.6284 64.8867 50.4531 66.3574 48.4804C67.9553 46.3333 70.9627 45.6804 73.4774 46.5525C74.0054 46.7363 74.4131 46.7646 75 46.5313C75.6528 46.272 76.4942 46.4441 77.2437 46.5171C77.3757 46.5289 77.5477 46.9838 77.5548 47.2407C77.5878 48.3555 77.5689 49.475 77.5689 50.5898C77.5619 50.5898 77.5548 50.5898 77.5477 50.5898H77.5501ZM74.4131 51.5443C74.4013 49.6541 74.2175 49.4443 72.4828 49.211C72.3273 49.1898 72.1694 49.1804 72.0138 49.1686C69.591 49.0201 68.1462 50.5332 68.3984 52.9537C68.5422 54.3395 69.2351 55.2092 70.4795 55.5651C71.6721 55.9045 72.8976 55.5085 73.6707 54.4738C74.3495 53.5641 74.4909 52.4988 74.4178 51.5419L74.4131 51.5443Z" fill="white"/>
<path d="M22.9726 52.4115C22.9396 48.7749 25.6217 46.1611 29.5365 46.1729C33.2155 46.1847 35.9 48.7536 35.9377 52.362C35.9754 55.9114 33.1872 58.6878 29.586 58.6831C25.6029 58.6783 22.8878 55.9185 22.9726 52.4138V52.4115ZM32.5792 52.4468C32.697 50.6745 31.4667 49.2816 29.6944 49.1732C27.8937 49.0624 26.383 50.3186 26.2817 52.0108C26.1591 54.0495 27.3092 55.5319 29.0981 55.6757C30.861 55.8171 32.6239 54.6976 32.5792 52.4492V52.4468Z" fill="white"/>
<path d="M62.2036 54.5751C62.2036 56.0269 62.2319 57.4787 62.1965 58.9282C62.1588 60.4507 61.7228 61.8389 60.2875 62.6025C59.5781 62.9796 58.7485 63.1423 57.9566 63.3449C57.5748 63.4439 57.3344 63.1682 57.233 62.8099C57.094 62.3197 56.969 61.8248 56.8394 61.3322C56.7121 60.8538 56.8842 60.5568 57.3556 60.373C58.6212 59.8733 59.0501 59.2228 59.0501 57.8629C59.0501 55.2539 59.0384 52.6472 59.0572 50.0382C59.0619 49.5055 58.8804 49.3028 58.3431 49.3005C57.028 49.2958 57.028 49.2793 57.0209 47.95C57.0209 47.9099 57.0209 47.8722 57.0209 47.8322C57.0138 46.4251 57.0138 46.4063 58.402 46.3968C58.9464 46.3945 59.0949 46.1729 59.1232 45.6591C59.1609 45.0204 59.241 44.3652 59.439 43.7619C60.0259 41.9683 61.407 41.101 63.1817 40.764C63.5847 40.6862 63.9972 40.6532 64.4073 40.6155C64.8881 40.5731 65.2039 40.7687 65.2699 41.2778C65.3382 41.8033 65.4018 42.3289 65.4796 42.8521C65.5362 43.2481 65.35 43.4461 64.9823 43.505C64.7301 43.545 64.4733 43.5545 64.2234 43.5993C63.0332 43.8161 62.3262 44.6198 62.2319 45.8123C62.1989 46.2389 62.3356 46.4322 62.7881 46.4133C63.3561 46.3921 63.9265 46.3992 64.4921 46.4204C64.9376 46.4369 65.1662 46.6891 65.1638 47.144C65.1591 47.6153 65.1615 48.0843 65.1591 48.5557C65.1591 49.0671 64.8881 49.3075 64.3884 49.3123C63.8793 49.317 63.3679 49.3358 62.8588 49.3123C62.3662 49.291 62.206 49.5126 62.2107 49.9816C62.2272 51.5112 62.2154 53.0408 62.2154 54.5704C62.2107 54.5704 62.2083 54.5704 62.2036 54.5704V54.5751Z" fill="white"/>
<path d="M83.2959 47.3843C83.508 47.2547 83.706 47.1463 83.8898 47.0167C85.6127 45.7911 88.1557 45.8312 89.7772 47.1487C90.8661 48.0325 91.2408 49.291 91.2809 50.6062C91.3516 52.9771 91.3021 55.3528 91.3115 57.7262C91.3115 58.1976 91.1041 58.4073 90.6351 58.3979C90.0459 58.3861 89.4567 58.3932 88.8698 58.3979C88.3301 58.4026 88.0921 58.1457 88.0944 57.6036C88.1038 55.7205 88.1086 53.8374 88.085 51.9543C88.0779 51.431 88.0355 50.8843 87.8729 50.394C87.5641 49.4749 86.8382 49.0577 85.8507 49.1213C84.9574 49.1779 84.1561 49.5079 83.5292 50.1371C83.3124 50.3563 83.178 50.7523 83.171 51.0705C83.1215 53.1869 83.1144 55.3057 83.0955 57.4245C83.0861 58.3083 83.0036 58.3908 82.1104 58.4003C81.6602 58.405 81.2077 58.4003 80.7575 58.3979C80.067 58.3908 79.9161 58.2541 79.9067 57.5777C79.8926 56.7552 79.902 55.9303 79.902 55.1054C79.8996 52.5364 79.8926 49.9674 79.8926 47.3961C79.8926 46.5477 80.0458 46.3945 80.8801 46.3827C81.3114 46.3756 81.7451 46.4039 82.174 46.3827C82.7232 46.3544 83.0955 46.5217 83.1521 47.1298C83.1592 47.1958 83.2252 47.2571 83.3006 47.382L83.2959 47.3843Z" fill="white"/>
<path d="M17.9469 58.6429C15.8186 58.6665 13.9261 58.0632 12.6015 56.3215C12.0972 55.6592 11.7248 54.8225 11.5362 54.007C10.9824 51.5983 11.4278 49.3947 13.3039 47.6482C14.6968 46.352 16.4291 46.0762 18.2415 46.2483C19.7122 46.3897 20.9919 46.9765 22.0077 48.0937C22.373 48.4967 22.3848 48.8337 22.0007 49.2085C21.6919 49.5078 21.3949 49.8236 21.0886 50.1253C20.563 50.6391 20.3956 50.6391 19.8771 50.1229C19.0357 49.2863 18.0341 48.9162 16.8745 49.2155C15.5075 49.5691 14.6496 50.8394 14.6874 52.3337C14.7486 54.7494 16.6105 56.1305 19.1135 55.572C19.7192 55.4376 20.299 55.1737 20.8835 54.9451C21.4492 54.7235 21.6801 54.8131 21.8522 55.3834C21.9818 55.8147 22.0949 56.2507 22.2387 56.6773C22.4131 57.2006 22.2316 57.5447 21.7579 57.7827C20.5583 58.3837 19.2879 58.6524 17.9492 58.6406L17.9469 58.6429Z" fill="white"/>
<path d="M107.461 52.4398C107.461 50.7546 107.461 49.0671 107.461 47.382C107.461 46.5618 107.586 46.4275 108.411 46.3968C108.901 46.378 109.391 46.385 109.881 46.4039C110.365 46.4228 110.638 46.6537 110.638 47.177C110.629 50.6674 110.629 54.1556 110.629 57.6461C110.629 58.1599 110.395 58.405 109.879 58.3979C109.33 58.3908 108.781 58.3885 108.232 58.4073C107.673 58.4262 107.461 58.1504 107.463 57.6178C107.473 55.8926 107.466 54.1674 107.466 52.4422H107.461V52.4398Z" fill="white"/>
<path d="M109.095 44.7523C108.072 44.7499 107.186 43.8944 107.186 42.9116C107.186 41.8015 108.018 40.913 109.064 40.9082C110.191 40.9012 111.07 41.752 111.063 42.8409C111.055 43.8991 110.176 44.7546 109.095 44.7523Z" fill="white"/>
<path d="M101.989 51.582C102.006 52.6285 101.931 53.7668 101.077 54.7025C100.267 55.591 99.2625 55.8456 98.1383 55.5863C96.9764 55.32 96.267 54.5399 96.0454 53.378C95.7697 51.9356 96.0266 50.6464 97.2804 49.7036C98.1383 49.0602 99.1164 49.1168 100.102 49.2063C100.139 49.2087 100.177 49.2228 100.217 49.2323C101.413 49.4868 102.005 50.2701 101.994 51.582H101.989Z" fill="#003DA5"/>
<path d="M74.4145 51.5445C74.49 52.5014 74.3462 53.5667 73.6674 54.4764C72.8967 55.5111 71.6688 55.907 70.4762 55.5676C69.2318 55.2118 68.5389 54.3421 68.3951 52.9563C68.1453 50.5358 69.5877 49.0227 72.0105 49.1712C72.1661 49.1806 72.324 49.1924 72.4796 49.2136C74.2142 49.4469 74.4004 49.6567 74.4098 51.5469L74.4145 51.5445Z" fill="#003DA5"/>
<path d="M32.5799 52.4466C32.6246 54.6974 30.8617 55.8146 29.0988 55.6731C27.3099 55.5294 26.1598 54.0469 26.2824 52.0082C26.3837 50.316 27.8944 49.0622 29.6951 49.1706C31.4674 49.279 32.6977 50.6743 32.5799 52.4443V52.4466Z" fill="#003DA5"/>
</svg>
