<svg width="90" height="90" viewBox="0 0 90 90" fill="none" xmlns="http://www.w3.org/2000/svg">
<g filter="url(#filter0_d_3430_1184)">
<rect x="10" y="6" width="70" height="70" rx="9" fill="#003DA5"/>
</g>
<g clip-path="url(#clip0_3430_1184)">
<path d="M29.1003 18.0072C29.3642 18.2255 29.6521 18.4223 29.7205 18.7965C29.838 19.4443 29.3786 19.9817 28.6672 19.9865C27.3081 19.9961 25.9502 19.9889 24.5911 19.9901C23.9973 19.9901 23.9925 19.9949 23.9913 20.5899C23.9901 21.859 23.9913 23.1282 23.9913 24.3973C23.9913 25.1399 23.7958 25.5165 23.3279 25.6821C22.8493 25.8524 22.4906 25.6929 22.0072 25.0991C22.0072 22.8331 22.012 20.5659 22 18.2987C21.9988 18.0492 22.0492 17.9988 22.2987 18C24.5659 18.012 26.8343 18.0072 29.1015 18.0072H29.1003Z" fill="#03C3DD"/>
<path d="M67.352 18.0071C67.839 18.3177 68.0094 18.7532 67.9998 19.335C67.9698 21.1271 67.9926 22.9193 67.9842 24.7115C67.9818 25.1937 67.6939 25.574 67.2824 25.6963C66.8518 25.8247 66.4043 25.6531 66.1488 25.2681C66.0085 25.0569 65.9965 24.8218 65.9965 24.5795C65.9965 23.2348 65.9833 21.8913 66.0049 20.5466C66.0121 20.1195 65.8777 19.9732 65.4435 19.9804C64.1599 20.0031 62.874 19.9888 61.5904 19.9888C60.8479 19.9888 60.47 19.7932 60.3045 19.3266C60.1342 18.848 60.2937 18.4881 60.8875 18.0059H67.352V18.0071Z" fill="#03C3DD"/>
<path d="M22.0078 56.8875C22.2249 56.6224 22.4229 56.3357 22.7971 56.2673C23.4461 56.1498 23.9823 56.6092 23.9871 57.3218C23.9967 58.6809 23.9895 60.04 23.9907 61.3991C23.9907 61.9917 23.9955 61.9965 24.5929 61.9965C25.922 61.9977 27.2511 61.9941 28.5815 61.9989C29.2844 62.0013 29.7235 62.378 29.7343 62.973C29.7451 63.5895 29.3012 63.9866 28.5791 63.989C26.8313 63.9926 25.0835 63.971 23.3369 64.001C22.7539 64.0106 22.3197 63.839 22.0078 63.3532V56.8887V56.8875Z" fill="#03C3DD"/>
<path d="M62.4575 41.99C61.4847 41.99 60.5118 42.0044 59.5402 41.9828C59.1839 41.9744 58.9991 42.0896 58.8852 42.4339C58.5505 43.4463 57.9927 44.3244 57.1878 45.0346C57.0091 45.1917 56.8279 45.374 56.6132 45.4592C55.9774 45.7111 55.6056 46.1981 55.2577 46.7559C54.5883 47.8296 53.721 48.7424 52.7938 49.5965C52.5407 49.8292 52.4339 50.0776 52.4411 50.4206C52.4603 51.4679 52.4291 52.5163 52.4627 53.5623C52.5275 55.5788 54.2512 57.305 56.2713 57.4093C57.129 57.4537 57.5597 57.7692 57.6004 58.3846C57.6436 59.0396 57.1938 59.5338 56.4968 59.5086C54.1445 59.4234 52.3619 58.3546 51.1599 56.3309C50.4534 55.1422 50.2927 53.8346 50.3478 52.4791C50.3586 52.2236 50.4906 51.8553 50.2591 51.733C50.0731 51.6346 49.8344 51.9465 49.6221 52.0772C48.5869 52.7142 47.5168 53.2732 46.3581 53.6571C45.1993 54.0409 44.0621 53.951 42.9285 53.5623C41.9196 53.2168 40.9684 52.749 40.0543 52.202C39.9451 52.1372 39.8348 51.9861 39.7016 52.07C39.5769 52.148 39.6381 52.3196 39.6405 52.4479C39.6608 53.4388 39.6488 54.4248 39.2782 55.3665C38.3101 57.8244 36.4964 59.1847 33.8873 59.5014C33.6366 59.5314 33.3799 59.5386 33.1304 59.4606C32.6601 59.3131 32.389 58.9472 32.3938 58.4566C32.3986 57.9863 32.6613 57.6265 33.1208 57.4957C33.2911 57.4465 33.4734 57.4249 33.651 57.4141C35.8006 57.2894 37.4692 55.6028 37.5364 53.4568C37.564 52.5595 37.5412 51.661 37.5508 50.7637C37.5532 50.519 37.4656 50.3475 37.2785 50.1855C35.8954 48.9883 34.7486 47.6016 33.9149 45.9654C33.8381 45.8155 33.7458 45.6883 33.5946 45.602C32.353 44.8894 31.5685 43.8038 31.1127 42.4747C30.9819 42.092 30.7852 41.9804 30.3977 41.984C28.4232 42.0008 26.4476 41.9948 24.4719 41.9876C23.968 41.9864 23.5698 41.6817 23.4618 41.2559C23.3503 40.8145 23.535 40.373 23.9261 40.1343C24.142 40.0023 24.3807 40.0011 24.6206 40.0011C26.4763 40.0011 28.3321 39.994 30.1866 40.0071C30.5429 40.0095 30.6844 39.9088 30.6952 39.5285C30.7336 38.0219 31.2147 36.6843 32.3135 35.6131C32.5066 35.4248 32.4766 35.2077 32.4778 34.9893C32.491 31.4182 33.8129 28.3989 36.3764 25.9386C38.4301 23.9677 40.8964 22.8617 43.7358 22.551C50.1475 21.848 56.2941 26.3644 57.3869 33.0508C57.5033 33.7622 57.4913 34.4819 57.5537 35.1957C57.5717 35.402 57.64 35.5579 57.7828 35.7091C58.7844 36.7695 59.2583 38.0506 59.293 39.4937C59.3026 39.8812 59.4166 40.0131 59.8113 40.0095C61.697 39.9928 63.5827 39.9987 65.4672 40.0047C66.0706 40.0059 66.4893 40.3502 66.5481 40.8648C66.6212 41.497 66.187 41.9828 65.5104 41.99C64.4932 42.002 63.476 41.9936 62.4575 41.9936V41.99ZM44.9917 39.9975C48.8508 39.9975 52.711 39.9975 56.57 39.9975C56.7044 39.9975 56.8387 39.9939 56.9743 39.9928C57.1818 39.9928 57.2802 39.886 57.2598 39.6833C57.153 38.6024 56.9251 37.5744 55.9618 36.8955C55.6116 36.6483 55.4544 36.3245 55.4688 35.901C55.494 35.1825 55.4472 34.4675 55.386 33.7514C55.3608 33.4527 55.2589 33.3435 54.9386 33.3603C53.9382 33.4131 52.9365 33.4119 51.9373 33.2955C49.8308 33.0496 47.8275 32.493 46.0462 31.303C45.7043 31.0751 45.5124 31.0895 45.2113 31.357C42.3947 33.8557 39.1162 35.0493 35.3364 34.8358C34.4295 34.7842 34.5183 34.7158 34.5183 35.6287C34.5183 36.051 34.5627 36.5056 34.1656 36.7767C33.2455 37.4053 32.8881 38.3133 32.7621 39.3666C32.6901 39.9676 32.6997 39.9963 33.3211 39.9975C37.2101 39.9975 41.1003 39.9975 44.9893 39.9975H44.9917ZM45.0397 41.99C44.1868 41.99 43.3339 41.99 42.481 41.99C39.5481 41.99 36.6151 41.99 33.681 41.99C33.1496 41.99 33.122 42.0428 33.3919 42.5083C33.7517 43.1308 34.2052 43.655 34.8997 43.9214C35.2128 44.0413 35.4012 44.28 35.5439 44.5739C37.1945 47.9783 39.9883 50.0931 43.3879 51.523C44.3488 51.9273 45.3036 51.9117 46.2597 51.4847C49.5441 50.0176 52.2156 47.844 54.0761 44.7311C54.2716 44.4048 54.4672 44.0869 54.8654 43.9825C55.6619 43.775 56.1706 43.2256 56.5652 42.5466C56.6516 42.3979 56.8303 42.2383 56.726 42.0656C56.636 41.9169 56.4213 41.9912 56.2629 41.9912C52.5215 41.9876 48.78 41.9888 45.0385 41.9888L45.0397 41.99ZM44.8346 24.5746C44.5107 24.5854 44.0333 24.5782 43.5571 24.6586C39.2674 25.3868 36.434 27.8315 35.0053 31.9196C34.7222 32.7305 34.763 32.7605 35.6087 32.7905C37.7163 32.8649 39.7148 32.4414 41.567 31.423C44.1257 30.0171 45.8914 27.9287 46.8823 25.1792C47.0142 24.8146 46.9147 24.7102 46.5524 24.6658C46.0306 24.6022 45.5112 24.5699 44.8334 24.5746H44.8346ZM53.4055 31.2863C53.7198 31.2863 54.0341 31.2755 54.3472 31.2887C54.7143 31.3042 54.7383 31.1651 54.6015 30.8616C53.5219 28.4613 51.7993 26.6943 49.4374 25.5355C49.1159 25.3784 48.9779 25.4203 48.8616 25.7742C48.4933 26.9018 47.9667 27.9562 47.3033 28.9411C46.9614 29.4485 46.9602 29.4557 47.4845 29.764C49.3114 30.8376 51.3123 31.2407 53.4043 31.2839L53.4055 31.2863Z" fill="white"/>
<path d="M65.9118 39.9976H24.4162C23.8703 39.9976 23.4277 40.4398 23.4277 40.9854C23.4277 41.531 23.8703 41.9733 24.4162 41.9733H65.9118C66.4577 41.9733 66.9002 41.531 66.9002 40.9854C66.9002 40.4398 66.4577 39.9976 65.9118 39.9976Z" fill="#03C3DD"/>
</g>
<g clip-path="url(#clip1_3430_1184)">
<path d="M61 62.3914C61 60.7834 61 59.1751 61 57.5669C61.0272 57.4188 61.0456 57.2683 61.0827 57.1231C61.3685 56.0064 62.0636 55.3147 63.0719 54.9535C63.2508 54.8894 63.2483 54.8959 63.2537 54.6917C63.2654 54.2484 63.2409 53.7986 63.3036 53.3635C63.5569 51.6072 64.8764 50.2531 66.5283 50.0335C67.4463 49.9115 68.3027 50.1165 69.0715 50.6733C70.0126 51.3549 70.5676 52.3036 70.7038 53.5109C70.751 53.9297 70.7369 54.3569 70.7452 54.7802C70.7467 54.8637 70.7665 54.8993 70.8449 54.9309C71.0924 55.031 71.3479 55.1217 71.5748 55.2626C72.3002 55.7129 72.7694 56.3743 72.9353 57.2633C72.9656 57.4265 72.9789 57.5935 73 57.7589V62.3914C72.993 62.4382 72.9881 62.4853 72.9791 62.5313C72.922 62.8275 72.8917 63.1335 72.8018 63.4179C72.3029 64.9926 70.8175 65.9795 69.3676 65.9927C67.8182 66.0068 66.2688 65.9943 64.7193 65.9965C64.058 65.9975 63.438 65.828 62.862 65.4853C61.9625 64.9501 61.3537 64.1648 61.1029 63.0872C61.0499 62.8604 61.0333 62.6237 61 62.3914ZM66.998 56.395C66.0204 56.395 65.0431 56.3957 64.0656 56.3945C63.804 56.3942 63.5488 56.43 63.3133 56.556C62.8088 56.8262 62.5054 57.2417 62.5054 57.8683C62.5054 59.3203 62.5054 60.7724 62.5054 62.2244C62.5054 62.7565 62.6798 63.2173 63.0133 63.6082C63.4892 64.1665 64.0966 64.4014 64.7903 64.4026C66.262 64.4055 67.7339 64.4046 69.2056 64.4029C69.7034 64.4024 70.1717 64.2805 70.5849 63.9745C71.1364 63.566 71.4827 63.0145 71.4897 62.2839C71.5038 60.8 71.4955 59.316 71.4933 57.8319C71.4926 57.4678 71.3656 57.1543 71.1283 56.8927C70.8067 56.538 70.4067 56.3945 69.9528 56.3947C68.9679 56.3952 67.9829 56.3947 66.998 56.3947V56.395ZM69.2431 54.7975C69.2431 54.4771 69.2629 54.168 69.2396 53.8627C69.1656 52.8967 68.7189 52.1848 67.8849 51.7982C66.5766 51.1915 65.113 51.9979 64.8121 53.4849C64.7499 53.7929 64.7688 54.12 64.7537 54.4382C64.7481 54.5563 64.7528 54.6749 64.7528 54.7975H69.2431Z" fill="white"/>
<path d="M67.7465 60.4118C67.7465 60.6837 67.7523 60.9559 67.7451 61.2276C67.7341 61.6423 67.4492 61.9536 67.0494 61.9994C66.7085 62.0385 66.3638 61.769 66.2752 61.3903C66.2609 61.3289 66.2546 61.2641 66.2543 61.2007C66.2528 60.6688 66.2499 60.1368 66.2543 59.6049C66.2582 59.1739 66.5179 58.8667 66.9179 58.8055C67.3211 58.744 67.7236 59.0877 67.7418 59.524C67.7541 59.8195 67.744 60.1156 67.744 60.4116C67.7447 60.4116 67.7456 60.4116 67.7463 60.4116L67.7465 60.4118Z" fill="white"/>
</g>
<defs>
<filter id="filter0_d_3430_1184" x="0" y="0" width="90" height="90" filterUnits="userSpaceOnUse" color-interpolation-filters="sRGB">
<feFlood flood-opacity="0" result="BackgroundImageFix"/>
<feColorMatrix in="SourceAlpha" type="matrix" values="0 0 0 0 0 0 0 0 0 0 0 0 0 0 0 0 0 0 127 0" result="hardAlpha"/>
<feOffset dy="4"/>
<feGaussianBlur stdDeviation="5"/>
<feComposite in2="hardAlpha" operator="out"/>
<feColorMatrix type="matrix" values="0 0 0 0 0 0 0 0 0 0.235294 0 0 0 0 0.415686 0 0 0 0.17 0"/>
<feBlend mode="normal" in2="BackgroundImageFix" result="effect1_dropShadow_3430_1184"/>
<feBlend mode="normal" in="SourceGraphic" in2="effect1_dropShadow_3430_1184" result="shape"/>
</filter>
<clipPath id="clip0_3430_1184">
<rect width="46" height="46" fill="white" transform="translate(22 18)"/>
</clipPath>
<clipPath id="clip1_3430_1184">
<rect width="12" height="16" fill="white" transform="translate(61 50)"/>
</clipPath>
</defs>
</svg>
