<svg width="317" height="223" viewBox="0 0 317 223" fill="none" xmlns="http://www.w3.org/2000/svg">
    <path id="Vector"
          d="M329.704 9.49088C329.704 37.4333 329.58 65.3756 329.75 93.318C329.867 111.588 334.665 128.077 349.441 140.239C358.673 147.841 358.696 156.696 353.549 166.594C346.879 179.433 340.357 192.357 333.92 205.321C327.654 217.926 317.017 222.058 305.766 215.032C291.573 206.169 277.853 195.688 266.416 183.549C258.504 175.145 253.892 172.663 245.708 181.542C179.555 253.253 43.2343 230.734 10.546 123.291C-7.68496 63.3681 -3.9192 5.94265 34.8177 -46.1993C76.9554 -102.917 156.161 -120.129 222.407 -97.0963C236.29 -92.2719 247.051 -91.5016 262.541 -97.6877C279.724 -104.543 301.907 -100.006 321.683 -98.0612C325.131 -97.7188 329.673 -85.7124 329.875 -78.9816C330.775 -49.5141 330.263 -20.0077 330.263 9.48309C330.077 9.48309 329.898 9.48309 329.712 9.48309L329.704 9.49088ZM247.044 34.702C246.748 -15.2067 241.888 -20.7314 196.155 -26.8941C192.063 -27.4466 187.925 -27.7345 183.794 -27.9835C119.963 -31.8974 81.9013 8.04357 88.5166 71.9663C92.3057 108.577 110.568 131.555 143.326 140.931C174.733 149.919 207.072 139.445 227.392 112.11C245.258 88.0657 249.031 59.9754 247.051 34.6943L247.044 34.702Z"
          fill="#97D700"/>
</svg>
