<svg width="20" height="20" viewBox="0 0 20 20" fill="none" xmlns="http://www.w3.org/2000/svg">
<rect width="20" height="20" rx="10" fill="#EBF0F8"/>
<mask id="mask0_446_1902" style="mask-type:alpha" maskUnits="userSpaceOnUse" x="4" y="5" width="11" height="11">
<rect x="4" y="5" width="11" height="11" fill="#D9D9D9"/>
</mask>
<g mask="url(#mask0_446_1902)">
<path d="M5.83317 14.625C5.58109 14.625 5.36529 14.5352 5.18577 14.3557C5.00626 14.1762 4.9165 13.9604 4.9165 13.7083V8.66663C4.9165 8.41454 5.00626 8.19874 5.18577 8.01923C5.36529 7.83972 5.58109 7.74996 5.83317 7.74996H7.6665V6.83329C7.6665 6.58121 7.75626 6.36541 7.93577 6.1859C8.11529 6.00638 8.33109 5.91663 8.58317 5.91663H10.4165C10.6686 5.91663 10.8844 6.00638 11.0639 6.1859C11.2434 6.36541 11.3332 6.58121 11.3332 6.83329V7.74996H13.1665C13.4186 7.74996 13.6344 7.83972 13.8139 8.01923C13.9934 8.19874 14.0832 8.41454 14.0832 8.66663V13.7083C14.0832 13.9604 13.9934 14.1762 13.8139 14.3557C13.6344 14.5352 13.4186 14.625 13.1665 14.625H5.83317ZM5.83317 13.7083H13.1665V8.66663H5.83317V13.7083ZM8.58317 7.74996H10.4165V6.83329H8.58317V7.74996Z" fill="#003DA5"/>
</g>
</svg>
