<svg width="28" height="24" viewBox="0 0 28 24" fill="none" xmlns="http://www.w3.org/2000/svg">
<path d="M5.37634 10.5047H5.86685C12.6737 10.5047 19.4821 10.5047 26.2889 10.5047C27.2365 10.5047 27.8073 10.9115 27.963 11.6883C28.1539 12.6442 27.4926 13.4293 26.4413 13.4913C26.3157 13.498 26.1902 13.493 26.0663 13.493C19.3281 13.493 12.5916 13.493 5.85346 13.493H5.37132L5.2759 13.6353C5.40983 13.7257 5.56217 13.7993 5.67768 13.9098C8.26748 16.3757 10.8556 18.845 13.4404 21.3176C14.0045 21.8567 14.1636 22.456 13.9208 23.0469C13.4973 24.0798 12.3271 24.3226 11.4516 23.5307C10.6463 22.8025 9.87292 22.0408 9.08778 21.2908C6.277 18.6089 3.46789 15.9287 0.660463 13.2469C-0.213406 12.4132 -0.220103 11.5929 0.640374 10.7709C4.17436 7.39596 7.70499 4.02102 11.2473 0.657795C11.5018 0.415054 11.8165 0.189053 12.143 0.0785638C12.8109 -0.147437 13.4521 0.13046 13.7919 0.702995C14.1569 1.31571 14.0849 2.0071 13.5726 2.53946C13.1759 2.94961 12.754 3.33465 12.3405 3.72806C10.0956 5.87088 7.85063 8.0137 5.60569 10.1548C5.51529 10.2402 5.41317 10.3122 5.31608 10.3909L5.37467 10.5031L5.37634 10.5047Z" fill="#003DA5"/>
</svg>
