<svg width="20" height="20" viewBox="0 0 20 20" fill="none" xmlns="http://www.w3.org/2000/svg">
<rect width="20" height="20" rx="10" fill="#EBF0F8"/>
<path fill-rule="evenodd" clip-rule="evenodd" d="M7.5752 9.14881C7.5752 8.47151 7.84425 7.82194 8.32318 7.34302C8.80211 6.86409 9.45167 6.59503 10.129 6.59503C10.8063 6.59503 11.4558 6.86409 11.9348 7.34302C12.4137 7.82194 12.6828 8.47151 12.6828 9.14881C12.6828 9.82611 12.4137 10.4757 11.9348 10.9546C11.4558 11.4335 10.8063 11.7026 10.129 11.7026C9.45167 11.7026 8.80211 11.4335 8.32318 10.9546C7.84425 10.4757 7.5752 9.82611 7.5752 9.14881ZM10.129 7.40149C9.66556 7.40149 9.22112 7.58558 8.89343 7.91327C8.56574 8.24095 8.38165 8.68539 8.38165 9.14881C8.38165 9.61223 8.56574 10.0567 8.89343 10.3844C9.22112 10.712 9.66556 10.8961 10.129 10.8961C10.5924 10.8961 11.0368 10.712 11.3645 10.3844C11.6922 10.0567 11.8763 9.61223 11.8763 9.14881C11.8763 8.68539 11.6922 8.24095 11.3645 7.91327C11.0368 7.58558 10.5924 7.40149 10.129 7.40149Z" fill="#003DA5"/>
<path fill-rule="evenodd" clip-rule="evenodd" d="M5.57192 8.53427C5.66382 7.41964 6.17151 6.38032 6.99419 5.62268C7.81688 4.86503 8.8944 4.44445 10.0128 4.44446H10.2451C11.3635 4.44445 12.441 4.86503 13.2637 5.62268C14.0864 6.38032 14.5941 7.41964 14.686 8.53427C14.7882 9.77583 14.4047 11.0086 13.6161 11.973L11.0392 15.1241C10.9289 15.2589 10.79 15.3676 10.6326 15.4422C10.4752 15.5169 10.3031 15.5556 10.1289 15.5556C9.95473 15.5556 9.7827 15.5169 9.62528 15.4422C9.46786 15.3676 9.329 15.2589 9.21872 15.1241L6.64182 11.973C5.85317 11.0086 5.4696 9.77583 5.57192 8.53427ZM10.0128 5.25091C9.09693 5.25105 8.21459 5.59555 7.54092 6.21604C6.86725 6.83652 6.45151 7.68762 6.37623 8.6004C6.29106 9.63366 6.61025 10.6596 7.26655 11.4622L9.84345 14.6139C9.87809 14.6563 9.92173 14.6904 9.97119 14.7139C10.0207 14.7374 10.0747 14.7495 10.1295 14.7495C10.1842 14.7495 10.2383 14.7374 10.2878 14.7139C10.3372 14.6904 10.3809 14.6563 10.4155 14.6139L12.9924 11.4622C13.6483 10.6595 13.9671 9.63352 13.8816 8.6004C13.8064 7.68753 13.3905 6.83635 12.7168 6.21586C12.043 5.59536 11.1605 5.25092 10.2445 5.25091H10.0128Z" fill="#003DA5"/>
</svg>
