<svg width="12" height="13" viewBox="0 0 12 13" fill="none" xmlns="http://www.w3.org/2000/svg">
<path d="M2.75697 10.2917H9.40339V7.04167H2.75697V10.2917ZM3.31084 7.58333H8.84952V9.75H3.31084V7.58333ZM5.52631 5.41667H2.75697V4.875H5.52631V5.41667ZM5.52631 3.25H2.75697V2.70833H5.52631V3.25ZM7.5795 0H1.92617C1.16294 0 0.541504 0.60775 0.541504 1.35417V13H11.6189V3.95038L7.5795 0ZM7.74179 0.924625L10.6734 3.79167H7.74179V0.924625ZM1.09537 12.4583V1.35417C1.09537 0.906208 1.46812 0.541667 1.92617 0.541667H7.18792V4.33333H11.065V12.4583H1.09537Z" fill="white"/>
</svg>
