<svg width="15" height="15" viewBox="0 0 15 15" fill="none" xmlns="http://www.w3.org/2000/svg">
<path d="M2.98633 9.375C2.98633 8.68563 3.53617 8.125 4.21228 8.125H8.19663C8.36581 8.125 8.50311 8.265 8.50311 8.4375C8.50311 8.61 8.36581 8.75 8.19663 8.75H4.21228C3.87453 8.75 3.5993 9.03062 3.5993 9.375V10.625C3.5993 10.9694 3.87453 11.25 4.21228 11.25H8.8096C8.97878 11.25 9.11609 11.39 9.11609 11.5625C9.11609 11.735 8.97878 11.875 8.8096 11.875H4.21228C3.53617 11.875 2.98633 11.3144 2.98633 10.625V9.375ZM3.29282 6.25H5.74472C5.9139 6.25 6.05121 6.11 6.05121 5.9375C6.05121 5.765 5.9139 5.625 5.74472 5.625H3.29282C3.12364 5.625 2.98633 5.765 2.98633 5.9375C2.98633 6.11 3.12364 6.25 3.29282 6.25ZM3.29282 3.75H5.74472C5.9139 3.75 6.05121 3.61 6.05121 3.4375C6.05121 3.265 5.9139 3.125 5.74472 3.125H3.29282C3.12364 3.125 2.98633 3.265 2.98633 3.4375C2.98633 3.61 3.12364 3.75 3.29282 3.75ZM10.342 14.6875C10.342 14.86 10.2047 15 10.0356 15H3.29282C1.77202 15 0.534424 13.7381 0.534424 12.1875V2.8125C0.534424 1.26188 1.77202 0 3.29282 0H6.67338C7.73689 0 8.73788 0.4225 9.49123 1.19L11.6268 3.36812C12.1319 3.88312 12.493 4.52875 12.6701 5.235C12.6934 5.32875 12.6732 5.42812 12.615 5.50437C12.5567 5.58062 12.4678 5.625 12.3728 5.625H8.8096C7.96431 5.625 7.27716 4.92375 7.27716 4.0625V0.679375C7.07978 0.643125 6.87811 0.625 6.67338 0.625H3.29282C2.10977 0.625 1.1474 1.60625 1.1474 2.8125V12.1875C1.1474 13.3937 2.10977 14.375 3.29282 14.375H10.0356C10.2047 14.375 10.342 14.515 10.342 14.6875ZM7.89014 4.0625C7.89014 4.57937 8.30267 5 8.8096 5H11.9536C11.785 4.555 11.5263 4.14937 11.1935 3.81L9.05786 1.63187C8.71949 1.2875 8.3229 1.02562 7.89075 0.855V4.0625H7.89014ZM13.2782 10.4881L11.1806 10.1444C10.6945 10.065 10.342 9.6425 10.342 9.14125C10.342 8.58125 10.7889 8.125 11.3387 8.125H13.0551C13.437 8.125 13.7931 8.33437 13.985 8.67188C14.0702 8.82187 14.2577 8.87187 14.4036 8.78625C14.5501 8.7 14.6004 8.50875 14.5158 8.35937C14.2154 7.82937 13.6564 7.5 13.0557 7.5H12.4881V6.5625C12.4881 6.39 12.3508 6.25 12.1816 6.25C12.0124 6.25 11.8751 6.39 11.8751 6.5625V7.5H11.3394C10.4518 7.5 9.72968 8.23625 9.72968 9.14125C9.72968 9.95125 10.2997 10.6331 11.0844 10.7619L13.182 11.1056C13.6681 11.185 14.0205 11.6075 14.0205 12.1087C14.0205 12.6687 13.5737 13.125 13.0238 13.125H11.3075C10.9256 13.125 10.5695 12.9156 10.3776 12.5781C10.2924 12.4281 10.103 12.3775 9.95893 12.4637C9.81243 12.55 9.76217 12.7412 9.84676 12.8906C10.1471 13.4206 10.7062 13.75 11.3069 13.75H11.8745V14.6875C11.8745 14.86 12.0118 15 12.181 15C12.3502 15 12.4875 14.86 12.4875 14.6875V13.75H13.0232C13.9108 13.75 14.6329 13.0137 14.6329 12.1087C14.6329 11.2987 14.0628 10.6169 13.2782 10.4881Z" fill="white"/>
</svg>
