<svg width="7" height="13" viewBox="0 0 7 13" fill="none" xmlns="http://www.w3.org/2000/svg">
<path d="M7 6.51669C7 6.63117 6.98196 6.73611 6.94588 6.83151C6.9098 6.92691 6.84667 7.02231 6.75647 7.11771L1.39882 12.7845C1.25451 12.9371 1.06059 13.0087 0.817059 12.9992C0.573529 12.9896 0.379607 12.9085 0.235294 12.7559C0.0549015 12.5651 -0.0217647 12.36 0.0052941 12.1406C0.0323529 11.9211 0.118039 11.7256 0.262353 11.5538L5.02471 6.51669L0.262353 1.47954C0.118039 1.3269 0.036862 1.12179 0.0188228 0.864203C0.000783585 0.606623 0.0819605 0.40151 0.262353 0.24887C0.406666 0.0580683 0.596078 -0.0230217 0.830588 0.00559899C1.0651 0.0342187 1.26353 0.124848 1.42588 0.27749L6.75647 5.91567C6.84667 6.01107 6.9098 6.10647 6.94588 6.20187C6.98196 6.29727 7 6.40221 7 6.51669Z" fill="#003DA5"/>
</svg>
