<svg width="20" height="20" viewBox="0 0 20 20" fill="none" xmlns="http://www.w3.org/2000/svg">
<rect width="20" height="20" rx="10" fill="#EBF0F8"/>
<path fill-rule="evenodd" clip-rule="evenodd" d="M11.0632 10.2063C10.9781 9.96557 10.8204 9.7571 10.6119 9.60967C10.4034 9.46224 10.1543 9.38309 9.89888 9.38313V9.07446H9.28155V9.38313C8.95409 9.38313 8.64005 9.51321 8.4085 9.74476C8.17696 9.9763 8.04688 10.2903 8.04688 10.6178C8.04688 10.9453 8.17696 11.2593 8.4085 11.4908C8.64005 11.7224 8.95409 11.8525 9.28155 11.8525V13.0871C9.013 13.0871 8.78428 12.9158 8.69909 12.6757C8.68645 12.6364 8.66606 12.6 8.63912 12.5688C8.61219 12.5375 8.57926 12.512 8.54227 12.4936C8.50529 12.4753 8.46501 12.4646 8.42381 12.4621C8.38262 12.4596 8.34134 12.4654 8.30243 12.4792C8.26351 12.4929 8.22775 12.5143 8.19726 12.5422C8.16676 12.57 8.14215 12.6036 8.12489 12.6411C8.10763 12.6786 8.09805 12.7192 8.09674 12.7604C8.09543 12.8017 8.1024 12.8428 8.11725 12.8813C8.20236 13.122 8.36003 13.3305 8.56855 13.4779C8.77706 13.6254 9.02617 13.7045 9.28155 13.7045V14.0131H9.89888V13.7045C10.2263 13.7045 10.5404 13.5744 10.7719 13.3429C11.0035 13.1113 11.1336 12.7973 11.1336 12.4698C11.1336 12.1424 11.0035 11.8283 10.7719 11.5968C10.5404 11.3652 10.2263 11.2351 9.89888 11.2351V10.0005C10.0266 10.0004 10.1511 10.04 10.2553 10.1137C10.3596 10.1874 10.4385 10.2916 10.481 10.4119C10.5083 10.4891 10.5651 10.5523 10.639 10.5876C10.6755 10.6051 10.7152 10.6152 10.7557 10.6174C10.7962 10.6195 10.8367 10.6137 10.8749 10.6002C10.9131 10.5867 10.9483 10.5658 10.9785 10.5387C11.0086 10.5116 11.0331 10.4788 11.0506 10.4423C11.0681 10.4057 11.0782 10.366 11.0804 10.3256C11.0825 10.2851 11.0767 10.2446 11.0632 10.2063ZM9.28155 10.0005C9.11782 10.0005 8.9608 10.0655 8.84502 10.1813C8.72925 10.2971 8.66421 10.4541 8.66421 10.6178C8.66421 10.7815 8.72925 10.9386 8.84502 11.0543C8.9608 11.1701 9.11782 11.2351 9.28155 11.2351V10.0005ZM9.89888 13.0871C10.0626 13.0871 10.2196 13.0221 10.3354 12.9063C10.4512 12.7906 10.5162 12.6335 10.5162 12.4698C10.5162 12.3061 10.4512 12.1491 10.3354 12.0333C10.2196 11.9175 10.0626 11.8525 9.89888 11.8525V13.0871Z" fill="#003DA5"/>
<path fill-rule="evenodd" clip-rule="evenodd" d="M6.24228 5.25348C6.99975 4.88277 8.24245 4.44446 9.60244 4.44446C10.934 4.44446 12.144 4.86455 12.8975 5.23033L12.9401 5.25101C13.1672 5.36336 13.3506 5.46954 13.4796 5.55566L12.3394 7.22247C14.968 9.90973 16.9984 15.5556 9.60244 15.5556C2.20645 15.5556 4.18223 10.0122 6.83369 7.22247L5.70088 5.55566C5.78823 5.49856 5.89904 5.43219 6.03115 5.36182C6.09659 5.32663 6.16697 5.29031 6.24228 5.25348ZM11.6066 7.20055L12.5193 5.86618C11.6705 5.9273 10.6605 6.1267 9.68825 6.4082C8.99374 6.60884 8.22207 6.57828 7.50751 6.44648C7.32743 6.41314 7.1486 6.3734 6.97135 6.32733L7.564 7.19993C8.83416 7.65213 10.3361 7.65213 11.6066 7.20055ZM7.20748 7.72559C8.69372 8.29972 10.48 8.29972 11.9662 7.72498C12.5864 8.37908 13.1054 9.12223 13.5058 9.92979C13.9232 10.7811 14.1503 11.6321 14.1133 12.3655C14.0775 13.0733 13.7991 13.6779 13.1632 14.1274C12.5005 14.5956 11.3859 14.9382 9.60213 14.9382C7.81649 14.9382 6.69664 14.6015 6.02776 14.1385C5.38727 13.6949 5.10607 13.0983 5.06626 12.4001C5.02459 11.6747 5.24683 10.828 5.6626 9.97084C6.05924 9.15349 6.61268 8.3667 7.20748 7.72559ZM6.85252 5.6532C7.09945 5.72666 7.3575 5.79056 7.61925 5.83902C8.28288 5.96125 8.94837 5.97915 9.51632 5.81463C10.1781 5.62175 10.8513 5.47011 11.5319 5.36058C10.964 5.18958 10.2997 5.06179 9.60213 5.06179C8.53877 5.06179 7.54702 5.35842 6.85252 5.6532Z" fill="#003DA5"/>
</svg>
