<svg width="20" height="20" viewBox="0 0 20 20" fill="none" xmlns="http://www.w3.org/2000/svg">
<rect width="20" height="20" rx="10" fill="#EBF0F8"/>
<mask id="mask0_446_1908" style="mask-type:alpha" maskUnits="userSpaceOnUse" x="4" y="4" width="12" height="12">
<rect x="4" y="4" width="11.7145" height="11.7145" fill="#D9D9D9"/>
</mask>
<g mask="url(#mask0_446_1908)">
<path d="M11.4679 12.1514L12.1512 11.4681L10.3452 9.66207V7.41679H9.36903V10.0526L11.4679 12.1514ZM9.85713 14.7384C9.18192 14.7384 8.54738 14.6102 7.95352 14.354C7.35966 14.0977 6.84308 13.75 6.40378 13.3107C5.96449 12.8714 5.61671 12.3548 5.36046 11.7609C5.1042 11.1671 4.97607 10.5325 4.97607 9.85732C4.97607 9.1821 5.1042 8.54756 5.36046 7.9537C5.61671 7.35984 5.96449 6.84326 6.40378 6.40397C6.84308 5.96467 7.35966 5.6169 7.95352 5.36064C8.54738 5.10439 9.18192 4.97626 9.85713 4.97626C10.5323 4.97626 11.1669 5.10439 11.7607 5.36064C12.3546 5.6169 12.8712 5.96467 13.3105 6.40397C13.7498 6.84326 14.0976 7.35984 14.3538 7.9537C14.6101 8.54756 14.7382 9.1821 14.7382 9.85732C14.7382 10.5325 14.6101 11.1671 14.3538 11.7609C14.0976 12.3548 13.7498 12.8714 13.3105 13.3107C12.8712 13.75 12.3546 14.0977 11.7607 14.354C11.1669 14.6102 10.5323 14.7384 9.85713 14.7384ZM9.85713 13.7622C10.9391 13.7622 11.8604 13.3818 12.621 12.6212C13.3817 11.8606 13.762 10.9393 13.762 9.85732C13.762 8.77535 13.3817 7.85405 12.621 7.09342C11.8604 6.33278 10.9391 5.95247 9.85713 5.95247C8.77516 5.95247 7.85386 6.33278 7.09323 7.09342C6.3326 7.85405 5.95229 8.77535 5.95229 9.85732C5.95229 10.9393 6.3326 11.8606 7.09323 12.6212C7.85386 13.3818 8.77516 13.7622 9.85713 13.7622Z" fill="#003DA5"/>
</g>
</svg>
