<svg width="17" height="16" viewBox="0 0 17 16" fill="none" xmlns="http://www.w3.org/2000/svg">
<path d="M16.4108 15.1338C16.3409 15.448 16.2119 15.7298 15.8993 15.8634C15.7445 15.9295 15.5655 15.972 15.3978 15.972C11.1769 15.9787 6.95632 15.9787 2.73536 15.9782C2.22554 15.9782 1.90549 15.7331 1.76482 15.2399C1.26581 13.4899 0.76847 11.739 0.272376 9.98807C0.148768 9.55149 0.378919 9.24559 0.833395 9.23935C1.10725 9.23561 1.38151 9.23852 1.65536 9.23852C1.71196 9.23852 1.76898 9.23852 1.83848 9.23852C1.83848 9.15653 1.83848 9.0941 1.83848 9.03167C1.83848 7.96707 1.83848 6.90288 1.83848 5.83828C1.83848 5.38339 2.04033 5.18029 2.49231 5.17987C3.66721 5.17946 4.84251 5.17987 6.01741 5.17987H6.18596V6.25072H2.92265V9.23852H3.13449C6.7861 9.23852 10.4377 9.23852 14.0898 9.23977C14.2046 9.23977 14.3249 9.24227 14.4331 9.27598C14.6437 9.3409 14.7419 9.5132 14.7989 9.71672C14.9525 10.2636 15.1094 10.8096 15.2655 11.3557C15.2775 11.3985 15.2946 11.4401 15.325 11.4764V8.02284H10.6695C10.9492 7.69821 11.1065 7.35694 11.1352 6.94284H11.3238C12.7888 6.94284 14.2537 6.94284 15.7183 6.94284C16.1432 6.94284 16.2635 7.02566 16.4112 7.41854V15.1334L16.4108 15.1338Z" fill="white"/>
<path d="M7.27198 3.62289C6.9074 3.62289 6.56072 3.62746 6.21445 3.62164C5.90231 3.61623 5.69463 3.38358 5.75581 3.09724C5.77621 3.00069 5.83614 2.89997 5.90647 2.82922C6.71054 2.01724 7.51919 1.20984 8.32868 0.40327C8.54634 0.186438 8.7948 0.182276 9.01081 0.397028C9.82487 1.20651 10.636 2.0189 11.4472 2.8313C11.5932 2.97738 11.654 3.15093 11.5687 3.34904C11.4838 3.54589 11.3186 3.62289 11.1113 3.62289C10.775 3.62289 10.4387 3.62289 10.0775 3.62289C10.0775 3.69364 10.0775 3.75398 10.0775 3.81433C10.0775 4.78321 10.0775 5.75251 10.0775 6.72139C10.0775 7.22081 9.85233 7.44597 9.35499 7.44639C8.89136 7.44639 8.42814 7.44722 7.96451 7.44639C7.50463 7.44555 7.27198 7.21499 7.27198 6.75926C7.27156 5.77956 7.27198 4.80028 7.27198 3.82057V3.62289Z" fill="white"/>
</svg>
