<svg width="22" height="15" viewBox="0 0 22 15" fill="none" xmlns="http://www.w3.org/2000/svg">
<path d="M10.625 0C5.79545 0 1.67102 3.11 0 7.5C1.67102 11.89 5.79545 15 10.625 15C15.4545 15 19.579 11.89 21.25 7.5C19.579 3.11 15.4545 0 10.625 0ZM10.625 12.5C7.95909 12.5 5.79545 10.26 5.79545 7.5C5.79545 4.74 7.95909 2.5 10.625 2.5C13.2909 2.5 15.4545 4.74 15.4545 7.5C15.4545 10.26 13.2909 12.5 10.625 12.5ZM10.625 4.5C9.02159 4.5 7.72727 5.84 7.72727 7.5C7.72727 9.16 9.02159 10.5 10.625 10.5C12.2284 10.5 13.5227 9.16 13.5227 7.5C13.5227 5.84 12.2284 4.5 10.625 4.5Z" fill="#777777"/>
</svg>
