<svg width="506" height="304" viewBox="0 0 506 304" fill="none" xmlns="http://www.w3.org/2000/svg">
<path d="M378.584 710.119C257.044 711.499 149.094 676.959 73.4935 577.649C44.7035 539.829 23.3935 492.039 12.6835 445.569L378.584 710.119ZM378.584 710.119H378.594H378.584ZM378.584 709.619L378.578 709.619C257.14 710.998 149.366 676.492 73.8914 577.346C45.1485 539.588 23.8664 491.865 13.1708 445.457C-18.4671 308.086 6.98905 182.461 113.934 82.8851L113.594 82.5192L113.934 82.8851C193.27 9.00929 291.984 -6.71567 395.376 3.1569C479.173 11.1561 552.154 44.6652 610.053 108.395C620.473 119.866 625.767 130.318 625.795 140.492C625.823 150.655 620.596 160.674 609.665 171.28C600.825 179.86 592.186 188.644 583.563 197.435L582.044 198.983C573.927 207.26 565.814 215.532 557.543 223.642C550.06 230.978 543.876 236.451 538.347 240.085C532.822 243.716 527.988 245.487 523.199 245.472C518.41 245.456 513.592 243.652 508.102 239.989C502.606 236.322 496.472 230.815 489.056 223.445C440.966 175.645 383.591 154.323 317.168 171.495C238.811 191.752 189.789 264.524 191.924 350.032C193.652 419.112 221.165 473.45 266.183 506.521C311.197 539.589 373.647 551.347 445.162 535.407C472.752 529.253 499.397 518.458 525.877 507.73C532.663 504.981 539.439 502.236 546.216 499.575C562.364 493.231 573.554 491.434 581.907 495.113C590.245 498.785 595.939 507.998 600.845 524.224C603.559 533.203 606.147 542.233 608.736 551.267C613.234 566.964 617.735 582.672 622.909 598.138C627.872 612.972 627.761 625.225 623.107 635.436C618.45 645.653 609.206 653.912 595.729 660.672C527.376 694.964 454.835 710.269 378.598 709.619H378.594L378.584 709.619Z" stroke="#97D700"/>
</svg>
