<svg width="13" height="15" viewBox="0 0 13 15" fill="none" xmlns="http://www.w3.org/2000/svg">
<path d="M6.175 4.0625C6.175 3.19937 6.90235 2.5 7.8 2.5C8.69765 2.5 9.425 3.19937 9.425 4.0625C9.425 4.92562 8.69765 5.625 7.8 5.625C6.90235 5.625 6.175 4.92562 6.175 4.0625ZM5.1376 8.65937C5.4444 8.83875 5.8448 8.74438 6.0307 8.44938C6.39405 7.87313 7.08825 7.5 7.8 7.5C8.51175 7.5 9.20595 7.8725 9.5693 8.44938C9.6915 8.64312 9.90665 8.75 10.1257 8.75C10.2407 8.75 10.3565 8.72062 10.4624 8.65937C10.7692 8.48063 10.8673 8.09625 10.6814 7.80062C10.0776 6.84375 8.9739 6.25 7.8 6.25C6.6261 6.25 5.5224 6.84438 4.91855 7.80062C4.73265 8.09625 4.8308 8.48 5.1376 8.65937ZM13 3.125V11.875C13 13.5981 11.542 15 9.75 15H2.6C1.1661 15 0 13.8787 0 12.5V3.125C0 1.40188 1.45795 0 3.25 0H9.75C11.542 0 13 1.40188 13 3.125ZM9.75 1.25H3.9V10H11.7V3.125C11.7 2.09125 10.8251 1.25 9.75 1.25ZM1.3 3.125V10.3475C1.68415 10.1325 2.1242 10 2.6 10V1.365C1.84535 1.62375 1.3 2.31125 1.3 3.125ZM11.7 11.875V11.25H2.6C1.88305 11.25 1.3 11.8106 1.3 12.5C1.3 13.1894 1.88305 13.75 2.6 13.75H9.75C10.8251 13.75 11.7 12.9087 11.7 11.875Z" fill="#003DA5"/>
</svg>
