<svg width="14" height="14" viewBox="0 0 14 14" fill="none" xmlns="http://www.w3.org/2000/svg">
<path d="M12.25 2.33333H10.5V1.16667C10.5 0.857247 10.3771 0.560501 10.1583 0.341709C9.9395 0.122916 9.64275 0 9.33333 0L4.66667 0C4.35725 0 4.0605 0.122916 3.84171 0.341709C3.62292 0.560501 3.5 0.857247 3.5 1.16667V2.33333H1.75C1.28587 2.33333 0.840752 2.51771 0.512563 2.8459C0.184374 3.17409 0 3.6192 0 4.08333L0 14H14V4.08333C14 3.6192 13.8156 3.17409 13.4874 2.8459C13.1592 2.51771 12.7141 2.33333 12.25 2.33333ZM4.66667 1.16667H9.33333V2.33333H4.66667V1.16667ZM1.75 3.5H12.25C12.4047 3.5 12.5531 3.56146 12.6625 3.67085C12.7719 3.78025 12.8333 3.92862 12.8333 4.08333V7H1.16667V4.08333C1.16667 3.92862 1.22812 3.78025 1.33752 3.67085C1.44692 3.56146 1.59529 3.5 1.75 3.5ZM1.16667 12.8333V8.16667H6.41667V9.33333H7.58333V8.16667H12.8333V12.8333H1.16667Z" fill="#003DA5"/>
</svg>
