<svg width="16" height="16" viewBox="0 0 16 16" fill="none" xmlns="http://www.w3.org/2000/svg">
<path d="M13.407 2.29626L12.9075 2.94127C13.1045 3.14347 13.2893 3.35699 13.4611 3.58143L13.9832 2.93763C13.8029 2.7136 13.6108 2.49927 13.407 2.29626Z" fill="url(#paint0_linear_897_2787)"/>
<path d="M14.6666 6.01577C14.8263 6.60417 14.912 7.22249 14.912 7.86062C14.912 11.7489 11.7489 14.912 7.86022 14.912C3.97196 14.912 0.808789 11.7485 0.808789 7.86022C0.808789 3.97196 3.97196 0.808789 7.86022 0.808789C8.94844 0.808789 9.97965 1.05668 10.9009 1.49869L11.4059 0.846398C10.34 0.305318 9.13527 0 7.86022 0C3.52632 0 0 3.52632 0 7.86022C0 12.1945 3.52632 15.7204 7.86022 15.7204C12.1945 15.7204 15.7208 12.1941 15.7208 7.86022C15.7208 6.94992 15.5647 6.07522 15.2788 5.26117L14.6666 6.01577Z" fill="url(#paint1_linear_897_2787)"/>
<path d="M2.67741 7.44232L7.22967 12.3889C7.41893 12.5947 7.7469 12.5846 7.92321 12.3674L15.8979 2.53822C16.0625 2.33522 16.0244 2.03637 15.8146 1.88068L13.8573 0.430925C13.6567 0.282512 13.3744 0.321334 13.2216 0.518678L7.98306 7.28582C7.81402 7.50419 7.49132 7.52481 7.296 7.32949L5.03826 5.07176C4.8579 4.8914 4.56471 4.89301 4.38638 5.0754L2.68711 6.81106C2.51646 6.98535 2.51201 7.26277 2.67741 7.44232Z" fill="url(#paint2_linear_897_2787)"/>
<defs>
<linearGradient id="paint0_linear_897_2787" x1="13.0993" y1="2.60401" x2="13.7691" y2="3.27377" gradientUnits="userSpaceOnUse">
<stop stop-color="#00BEFF"/>
<stop offset="1" stop-color="#007DFF"/>
</linearGradient>
<linearGradient id="paint1_linear_897_2787" x1="2.167" y1="2.4427" x2="13.278" y2="13.5538" gradientUnits="userSpaceOnUse">
<stop stop-color="#00BEFF"/>
<stop offset="1" stop-color="#007DFF"/>
</linearGradient>
<linearGradient id="paint2_linear_897_2787" x1="2.42502" y1="-3.8483" x2="18.1876" y2="15.7903" gradientUnits="userSpaceOnUse">
<stop stop-color="#00BEFF"/>
<stop offset="1" stop-color="#007DFF"/>
</linearGradient>
</defs>
</svg>
