<svg width="31" height="31" viewBox="0 0 31 31" fill="none" xmlns="http://www.w3.org/2000/svg">
<path d="M15.1029 30.1411C6.77524 30.1411 0 23.3804 0 15.0705C0 6.7607 6.77524 0 15.1029 0C23.4307 0 30.2059 6.7607 30.2059 15.0705C30.2059 23.3804 23.4307 30.1411 15.1029 30.1411ZM15.1029 3.19986C8.54222 3.19986 3.20674 8.5257 3.20674 15.0705C3.20674 21.6154 8.54404 26.9412 15.1029 26.9412C21.6619 26.9412 26.9992 21.6154 26.9992 15.0705C26.9992 8.5257 21.6619 3.19986 15.1029 3.19986Z" fill="#005EAA"/>
<path d="M23.0647 10.6604C22.4393 10.0364 21.4231 10.0364 20.7978 10.6604L14.4006 17.0438L10.3031 12.9551C9.67779 12.3311 8.66159 12.3311 8.03624 12.9551C7.41089 13.5791 7.41089 14.5931 8.03624 15.2171L13.2681 20.4377C13.5808 20.7497 13.9916 20.9057 14.4025 20.9057C14.8133 20.9057 15.2223 20.7497 15.5368 20.4377C15.5659 20.4087 15.5914 20.3797 15.6168 20.3489C15.6477 20.3235 15.6768 20.2981 15.7059 20.269L23.0683 12.9224C23.6936 12.2984 23.6936 11.2844 23.0683 10.6604H23.0647Z" fill="#005EAA"/>
</svg>
