<svg width="27" height="27" viewBox="0 0 27 27" fill="none" xmlns="http://www.w3.org/2000/svg">
<path d="M0.00245869 15.0917C0.00245869 12.717 -0.00464692 10.3409 0.00530093 7.96617C0.0138277 5.83306 1.28857 4.02255 3.21704 3.43989C3.71869 3.28783 4.25872 3.20257 4.78169 3.19404C6.6732 3.16562 8.56471 3.17983 10.4562 3.18409C11.3018 3.18693 11.8575 3.66585 11.8816 4.39489C11.9072 5.18645 11.3515 5.71653 10.4648 5.71937C8.54908 5.72506 6.63483 5.71653 4.71916 5.72364C3.72295 5.72648 2.89444 6.32051 2.62869 7.22292C2.55906 7.4574 2.52495 7.71036 2.52353 7.9548C2.51784 12.7056 2.51784 17.455 2.51926 22.2058C2.51926 23.5417 3.42878 24.4554 4.7689 24.4569C9.52113 24.4611 14.2734 24.4611 19.0256 24.4569C20.3842 24.4569 21.2795 23.5502 21.2823 22.1816C21.2866 20.2788 21.2809 18.3773 21.2866 16.4744C21.2894 15.7454 21.6433 15.2906 22.2757 15.157C23.2435 14.9524 23.8105 15.7383 23.8048 16.3849C23.792 17.7435 23.8105 19.1035 23.7977 20.4621C23.7892 21.3588 23.8347 22.2669 23.7053 23.148C23.4041 25.1973 21.6774 26.752 19.6054 26.9424C19.2416 26.9765 18.875 26.9964 18.5097 26.9964C13.9579 27.0007 9.40744 27.0021 4.85559 26.9964C2.38426 26.9936 0.531116 25.4715 0.0706725 23.0656C0.00956429 22.7444 0.00530093 22.4076 0.00387981 22.0779C-0.000383555 19.7473 0.00245869 17.4195 0.00245869 15.0917Z" fill="#003DA5"/>
<path d="M26.9914 4.16924C26.9999 5.49657 26.6389 6.39045 25.9156 7.11523C22.3798 10.6638 18.8412 14.2109 15.277 17.7324C14.8962 18.109 14.3789 18.4217 13.8687 18.5808C12.0554 19.1408 10.225 19.6467 8.38745 20.1228C7.41256 20.3757 6.59684 19.4975 6.86969 18.5183C7.38698 16.668 7.90143 14.8163 8.49261 12.9887C8.66315 12.4615 9.02269 11.9485 9.41777 11.5491C12.891 8.03753 16.3884 4.54868 19.8886 1.06267C21.3225 -0.364136 23.7725 -0.348504 25.2078 1.07546C25.5432 1.408 25.8857 1.7377 26.1813 2.10435C26.7569 2.81491 26.9914 3.55105 26.9899 4.16924H26.9914ZM20.7029 8.76515C19.8701 7.92384 19.07 7.11381 18.26 6.29382C18.2358 6.31229 18.196 6.33645 18.1633 6.36772C15.8313 8.69694 13.4978 11.0247 11.1757 13.3625C11.0165 13.5216 10.9 13.749 10.8289 13.965C10.6215 14.6031 10.4452 15.2526 10.2591 15.8978C10.1525 16.2658 10.0502 16.6353 9.93363 17.0489C10.0914 17.0119 10.1923 16.992 10.2903 16.9636C11.1501 16.7149 12.0184 16.4875 12.8668 16.2019C13.1994 16.0896 13.539 15.8992 13.7877 15.6547C15.5741 13.8997 17.3377 12.1218 19.1098 10.3511C19.6442 9.81678 20.1799 9.28528 20.7043 8.76373L20.7029 8.76515ZM22.4651 6.76421C23.0179 6.26966 23.6034 5.80353 24.1164 5.26777C24.628 4.73343 24.5797 4.04845 24.0695 3.52405C23.8393 3.28815 23.5949 3.06219 23.3405 2.85186C22.8658 2.45963 22.3088 2.38716 21.8441 2.76802C21.2202 3.2782 20.6631 3.87223 20.0989 4.41083C20.9459 5.25356 21.7488 6.05081 22.4665 6.76421H22.4651Z" fill="#003DA5"/>
</svg>
