<svg width="79" height="79" viewBox="0 0 79 79" fill="none" xmlns="http://www.w3.org/2000/svg">
<g filter="url(#filter0_d_1_2707)">
<circle cx="39.5" cy="30.5" r="29.5" fill="#D9D9D9"/>
</g>
<mask id="mask0_1_2707" style="mask-type:alpha" maskUnits="userSpaceOnUse" x="10" y="1" width="59" height="59">
<circle cx="39.5" cy="30.5" r="29.5" fill="#D9D9D9"/>
</mask>
<g mask="url(#mask0_1_2707)">
<rect x="-15" y="-8" width="128" height="73" rx="20" fill="url(#paint0_linear_1_2707)"/>
</g>
<path d="M37.6808 25.7355C37.6808 25.4494 37.7137 25.1545 37.6666 24.8717C37.6447 24.7435 37.4803 24.6196 37.3531 24.5341C36.896 24.2239 36.6297 23.7997 36.5332 23.2626C36.5201 23.1914 36.5113 23.118 36.5113 23.0456C36.5113 21.9232 36.497 20.8019 36.5168 19.6795C36.542 18.2786 37.6074 17.1441 39.0455 17.0334C39.7503 16.9786 40.4715 16.9918 41.1742 17.0685C42.4533 17.2077 43.4497 18.3203 43.4837 19.6214C43.5143 20.7701 43.5056 21.9199 43.4869 23.0686C43.4782 23.6013 43.2425 24.0529 42.8315 24.4026C42.6671 24.5429 42.3985 24.6492 42.3514 24.8191C42.2714 25.1052 42.3295 25.4297 42.3295 25.742C42.9751 25.833 43.5089 25.742 43.9901 25.251C45.8809 23.3229 47.799 21.4234 49.7107 19.5161C50.5306 18.6973 51.6223 18.5263 52.5606 19.0558C53.8255 19.7693 54.1225 21.4606 53.1766 22.5644C53.0933 22.6609 53.0023 22.7508 52.9124 22.8417C50.4231 25.3321 47.9339 27.8225 45.4402 30.3073C45.2988 30.4476 45.2418 30.5858 45.2418 30.7852C45.2473 34.0418 45.2462 37.2983 45.2462 40.5538V40.8958H44.1249C44.1205 40.7895 44.1117 40.6919 44.1117 40.5954C44.1117 37.1657 44.1128 33.736 44.1062 30.3062C44.1062 30.1046 44.172 29.9686 44.3101 29.8316C46.9254 27.2229 49.5364 24.6087 52.1506 21.9988C52.5047 21.6448 52.6921 21.248 52.5474 20.7427C52.3183 19.937 51.3559 19.6257 50.7015 20.1475C50.6018 20.2264 50.513 20.3196 50.4231 20.4095C48.5269 22.3057 46.6251 24.1965 44.7365 26.1016C44.1906 26.6529 43.5604 26.9379 42.781 26.9083C42.3251 26.8908 41.8691 26.8995 41.4131 26.9083C41.2509 26.9116 41.184 26.8601 41.1851 26.6913C41.1906 25.9065 41.1829 25.1227 41.1939 24.3379C41.195 24.248 41.2684 24.1351 41.343 24.076C41.5633 23.8995 41.7978 23.7416 42.0313 23.5805C42.2527 23.4282 42.3569 23.2144 42.358 22.9535C42.3601 21.8772 42.3689 20.8008 42.3547 19.7244C42.3437 18.8935 41.7408 18.2293 40.887 18.1679C40.2534 18.1219 39.6067 18.1241 38.9775 18.1975C38.1982 18.2885 37.6589 18.9483 37.6491 19.7332C37.6359 20.8095 37.6425 21.8859 37.6447 22.9623C37.6447 23.2133 37.7488 23.4194 37.9593 23.5674C38.1982 23.7351 38.4383 23.9017 38.6684 24.0803C38.7331 24.1308 38.8066 24.2206 38.8066 24.293C38.8164 25.149 38.8131 26.0051 38.8131 26.8908C38.6926 26.8962 38.595 26.905 38.4985 26.9061C38.0426 26.9072 37.5866 26.8995 37.1306 26.9083C36.4028 26.9237 35.8054 26.6507 35.299 26.1355C33.3863 24.1921 31.4659 22.2542 29.5521 20.3119C29.2276 19.9831 28.8528 19.8143 28.3924 19.925C27.5254 20.1311 27.1976 21.1526 27.7852 21.8234C28.0252 22.0975 28.2938 22.3463 28.5502 22.6061C30.9409 25.0274 33.3337 27.4465 35.7177 29.8733C35.8131 29.9697 35.8843 30.1374 35.8843 30.2723C35.8931 33.7294 35.892 37.1865 35.8909 40.6437C35.8909 40.7237 35.8821 40.8037 35.8756 40.9013H34.7564V40.568C34.7564 37.3115 34.7542 34.0549 34.7608 30.7984C34.7608 30.5912 34.7005 30.4444 34.5547 30.2964C32.0567 27.7764 29.5652 25.2499 27.0705 22.7266C26.4084 22.0569 26.187 21.26 26.4643 20.3667C26.7395 19.4811 27.3763 18.9473 28.2883 18.7916C29.0786 18.6568 29.7636 18.9144 30.327 19.4832C31.2445 20.4106 32.1597 21.339 33.0761 22.2674C34.0571 23.2604 35.0425 24.248 36.0148 25.2488C36.5102 25.7596 36.782 25.833 37.6787 25.7388L37.6808 25.7355Z" fill="#F9FAFB"/>
<path d="M29.6749 35.7815C29.106 35.514 28.5744 35.2641 28.0242 35.0055C28.1864 34.6569 28.3399 34.3302 28.5032 33.9795C29.6727 34.5243 30.8236 35.0592 31.9987 35.6061C31.4539 36.7746 30.9201 37.9178 30.371 39.095C30.0246 38.935 29.6914 38.7805 29.3417 38.6193C29.6124 38.034 29.8722 37.475 30.1309 36.916C30.1167 36.8951 30.1013 36.8732 30.0871 36.8524C29.7199 37.0355 29.3461 37.2086 28.9855 37.4048C28.4297 37.7063 27.9124 38.0647 27.5222 38.5744C27.0081 39.2441 27.0125 39.8842 27.5408 40.5441C28.0121 41.1338 28.6391 41.5251 29.3011 41.8616C30.759 42.6037 32.3209 43.029 33.918 43.3326C36.6188 43.8456 39.3459 43.9804 42.0862 43.8182C44.5491 43.6724 46.9781 43.3151 49.3107 42.4656C50.2993 42.1061 51.2519 41.6731 52.0531 40.9694C52.223 40.8203 52.3809 40.6504 52.5157 40.4685C52.9837 39.8415 52.9782 39.2375 52.5058 38.6106C52.0619 38.0198 51.4623 37.6175 50.8123 37.2985C50.2336 37.0146 49.6274 36.7855 49.0322 36.5345C48.9424 36.4962 48.847 36.4677 48.7275 36.426C48.8426 36.0643 48.9522 35.7212 49.0739 35.3409C49.4795 35.4921 49.8719 35.6269 50.2566 35.7837C51.2409 36.1849 52.1748 36.6748 52.9552 37.4136C53.4408 37.874 53.8146 38.4056 53.9494 39.0753C54.1237 39.9401 53.8343 40.6756 53.2884 41.3267C52.554 42.2014 51.5862 42.7484 50.5602 43.1945C48.8371 43.9453 47.022 44.364 45.1695 44.6403C43.3171 44.9165 41.4537 45.0382 39.5816 45.0097C36.6462 44.9647 33.7448 44.6512 30.9333 43.7535C29.5905 43.3249 28.2949 42.7835 27.2218 41.8353C26.9314 41.5788 26.6639 41.2785 26.4491 40.9562C25.7859 39.9555 25.8648 38.8364 26.6354 37.863C27.1363 37.2295 27.7787 36.768 28.4813 36.3866C28.8561 36.1827 29.2442 36.0018 29.6771 35.7848L29.6749 35.7815Z" fill="#F9FAFB"/>
<path d="M40.0058 29.5205C41.2027 31.0266 42.3383 32.5315 42.8096 34.4081C43.2108 36.0084 42.2824 37.5177 40.7007 37.9134C39.1618 38.2982 37.5976 37.3829 37.1943 35.8604C36.9718 35.023 37.1767 34.236 37.4935 33.4676C38.0898 32.0207 38.9864 30.7624 40.0069 29.5216L40.0058 29.5205ZM40.0036 31.3675C39.803 31.6656 39.6243 31.9133 39.4632 32.1742C38.9612 32.9897 38.4668 33.8107 38.275 34.7687C38.1314 35.4844 38.4044 36.1586 38.9952 36.5586C39.6024 36.9697 40.396 36.9708 41.0032 36.5608C41.5962 36.1607 41.8714 35.4877 41.7278 34.7731C41.5327 33.7964 41.0274 32.9612 40.5122 32.1325C40.3598 31.8881 40.1932 31.6524 40.0025 31.3686L40.0036 31.3675Z" fill="#F9FAFB"/>
<circle cx="39.5" cy="30.5" r="24.5" stroke="white" stroke-width="2"/>
<defs>
<filter id="filter0_d_1_2707" x="0" y="0" width="79" height="79" filterUnits="userSpaceOnUse" color-interpolation-filters="sRGB">
<feFlood flood-opacity="0" result="BackgroundImageFix"/>
<feColorMatrix in="SourceAlpha" type="matrix" values="0 0 0 0 0 0 0 0 0 0 0 0 0 0 0 0 0 0 127 0" result="hardAlpha"/>
<feOffset dy="9"/>
<feGaussianBlur stdDeviation="5"/>
<feComposite in2="hardAlpha" operator="out"/>
<feColorMatrix type="matrix" values="0 0 0 0 0 0 0 0 0 0.235294 0 0 0 0 0.415686 0 0 0 0.07 0"/>
<feBlend mode="normal" in2="BackgroundImageFix" result="effect1_dropShadow_1_2707"/>
<feBlend mode="normal" in="SourceGraphic" in2="effect1_dropShadow_1_2707" result="shape"/>
</filter>
<linearGradient id="paint0_linear_1_2707" x1="-10.3778" y1="62.9043" x2="103.725" y2="8.60411" gradientUnits="userSpaceOnUse">
<stop stop-color="#003DA5"/>
<stop offset="1" stop-color="#003DA5"/>
</linearGradient>
</defs>
</svg>
