<svg width="32" height="22" viewBox="0 0 32 22" fill="none" xmlns="http://www.w3.org/2000/svg">
<path d="M15.9025 0.00060324C20.743 0.00060324 25.5819 0.00060324 30.4208 0.00213019C31.2866 0.00213019 31.818 0.525875 31.7828 1.32905C31.7554 1.9551 31.2683 2.45136 30.6392 2.49106C30.5246 2.4987 30.4101 2.49564 30.2956 2.49564C20.6941 2.49564 11.0911 2.49564 1.48964 2.49564C1.16898 2.49564 0.855958 2.49106 0.574999 2.30172C0.109278 1.98717 -0.099914 1.44205 0.0497273 0.903032C0.197842 0.365545 0.652873 0.00671105 1.23311 0.0051841C3.2151 -0.00245066 5.19556 0.00060324 7.17754 0.00060324C10.0864 0.00060324 12.9952 0.00060324 15.9025 0.00060324Z" fill="white"/>
<path d="M15.9363 19.5059C20.7752 19.5059 25.6141 19.5059 30.453 19.5059C31.2852 19.5059 31.8135 20.0388 31.7815 20.8282C31.7555 21.4558 31.27 21.9536 30.6424 21.9948C30.5279 22.0024 30.4133 21.9994 30.2988 21.9994C20.6973 21.9994 11.0943 21.9994 1.49287 21.9994C1.19969 21.9994 0.909571 22.004 0.642355 21.8482C0.132353 21.552 -0.108906 20.9794 0.0468434 20.4113C0.199539 19.8494 0.663732 19.5074 1.30352 19.5074C5.863 19.5043 10.4225 19.5074 14.982 19.5059C15.2996 19.5059 15.6172 19.5059 15.9348 19.5059H15.9363Z" fill="white"/>
<path d="M15.8939 12.2467C12.2338 12.2467 8.57369 12.2391 4.91511 12.2544C4.36388 12.2559 3.98367 12.0757 3.77143 11.5627C3.56376 11.0603 3.6737 10.3869 4.03101 10.0311C4.19745 9.8647 4.3929 9.75323 4.63873 9.75629C4.7273 9.75629 4.81586 9.75476 4.90595 9.75476C12.2384 9.75476 19.5708 9.75476 26.9017 9.75476C27.54 9.75476 27.8453 9.95326 28.0469 10.4908C28.2393 11.0053 28.0958 11.6726 27.7293 12.0101C27.5064 12.2147 27.2407 12.2498 26.9521 12.2498C23.2675 12.2467 19.5815 12.2467 15.8969 12.2467H15.8939Z" fill="white"/>
</svg>
