<svg width="523" height="267" viewBox="0 0 523 267" fill="none" xmlns="http://www.w3.org/2000/svg">
<path d="M358.457 526.032C313.872 551.773 269.173 577.315 224.746 603.329C195.702 620.346 173.822 643.206 168.054 678.031C164.445 699.793 150.337 707.987 129.793 708.876C103.152 710.041 76.5097 711.521 49.8844 713.173C23.9878 714.768 7.57722 701.569 8.40452 677.111C9.44579 646.256 13.5067 614.668 22.319 585.202C28.4253 564.812 28.1291 555.153 6.40955 550.249C-169.07 510.556 -258.959 271.885 -117.694 120.651C-38.9084 36.3044 56.1944 -10.5766 175.144 3.31552C304.534 18.4294 405.101 129.193 429.494 256.314C434.61 282.952 443.313 300.865 467.48 319.93C494.278 341.083 507.514 380.725 522.662 414.132C525.298 419.958 510.333 438.28 499.78 444.803C453.593 473.389 406.04 499.751 358.985 526.918C358.813 526.62 358.648 526.335 358.476 526.037L358.457 526.032ZM241.937 417.113C321.299 370.665 325.628 357.806 293.251 279.019C290.356 271.968 286.995 265.087 283.58 258.255C230.911 152.606 132.052 128.554 36.1634 198.016C-18.7549 237.799 -38.5629 288.161 -23.2889 349.167C-8.64102 407.655 37.9182 449.704 100.289 457.006C155.143 463.418 203.446 443.573 241.957 417.119L241.937 417.113Z" fill="#05C3DD"/>
</svg>
