<svg width="19" height="20" viewBox="0 0 19 20" fill="none" xmlns="http://www.w3.org/2000/svg">
<g clip-path="url(#clip0_135_2390)">
<path d="M9.38826 17.746C8.63385 17.746 7.87944 17.7518 7.12552 17.7446C6.29178 17.7365 5.66732 17.2089 5.71161 16.3969C5.77245 15.2862 5.31494 14.4565 4.60239 13.6493C3.32379 12.2017 2.91106 10.4874 3.26733 8.60917C3.74918 6.06998 5.80993 4.06989 8.40753 3.71575C10.9462 3.36973 13.0396 4.21709 14.5153 6.29795C15.8679 8.20533 15.9686 10.2666 15.0312 12.3809C14.7874 12.9305 14.435 13.4237 14.0111 13.8572C13.3676 14.5153 13.0109 15.2695 13.08 16.2038C13.1189 16.7329 12.9471 17.194 12.4818 17.5143C12.2243 17.6911 11.9309 17.7422 11.6276 17.7446C10.8815 17.7499 10.1354 17.7465 9.38874 17.7465L9.38826 17.746ZM9.38582 16.449C10.0755 16.449 10.7652 16.4394 11.4544 16.4538C11.705 16.459 11.7814 16.373 11.7693 16.1355C11.7513 15.7851 11.7814 15.4334 11.8603 15.0912C12.0404 14.3108 12.4395 13.6474 12.9934 13.0648C13.6275 12.3986 14.0656 11.6239 14.2228 10.7197C14.5056 9.08996 14.1405 7.63087 12.9588 6.41743C11.9459 5.377 10.7019 4.88856 9.22764 4.92393C8.09165 4.95165 7.09048 5.3163 6.23726 6.02506C4.95282 7.0913 4.36293 8.46627 4.47244 10.1261C4.54544 11.2363 4.96743 12.2031 5.73254 13.0084C6.58137 13.9021 7.04959 14.9273 7.00627 16.1574C6.998 16.3945 7.09194 16.4566 7.31826 16.4533C8.00745 16.4423 8.69712 16.4495 9.3868 16.4495L9.38582 16.449Z" fill="#1E1E1E" fill-opacity="0.75"/>
<path d="M9.38823 19.999C8.85333 19.999 8.31843 20.0018 7.78353 19.998C7.35911 19.9947 7.05346 19.7175 7.0627 19.3533C7.07147 18.9934 7.36544 18.7339 7.78304 18.7325C8.85284 18.7291 9.92264 18.7291 10.992 18.7325C11.4047 18.7339 11.7152 19.0063 11.7152 19.3519C11.7152 19.7227 11.4159 19.9947 10.9924 19.998C10.4575 20.0023 9.92264 19.999 9.38774 19.999H9.38823Z" fill="#1E1E1E" fill-opacity="0.75"/>
<path d="M1.27617 7.89048C1.46258 7.89048 1.64948 7.88044 1.83492 7.89239C2.22186 7.91677 2.5061 8.18488 2.51145 8.51608C2.51681 8.85014 2.2496 9.14741 1.86704 9.17131C1.45577 9.19663 1.0406 9.19568 0.629813 9.16844C0.26429 9.14454 -0.00681044 8.84154 3.57119e-06 8.52611C0.00730429 8.19157 0.287652 7.91915 0.669236 7.89335C0.870736 7.87949 1.07418 7.89096 1.27617 7.89048Z" fill="#1E1E1E" fill-opacity="0.75"/>
<path d="M17.5188 7.88949C17.7052 7.88949 17.8916 7.88184 18.0776 7.8914C18.4742 7.91195 18.7648 8.17958 18.775 8.52273C18.7848 8.85345 18.4932 9.15502 18.1009 9.17605C17.7135 9.1966 17.3231 9.19755 16.9352 9.17605C16.5395 9.15454 16.2602 8.86301 16.2631 8.51986C16.266 8.18054 16.56 7.91099 16.9596 7.89092C17.1455 7.88184 17.3319 7.88949 17.5183 7.88949H17.5188Z" fill="#1E1E1E" fill-opacity="0.75"/>
<path d="M3.04925 2.93817C3.06677 2.69204 3.16655 2.48224 3.40309 2.38426C3.66348 2.27625 3.93215 2.28533 4.15068 2.49084C4.43103 2.75465 4.70359 3.02707 4.97421 3.30091C5.25601 3.58623 5.27646 3.93846 5.03359 4.19797C4.78049 4.46895 4.36922 4.48807 4.07622 4.21804C3.78176 3.94658 3.50676 3.65505 3.22544 3.37021C3.10814 3.25121 3.04244 3.10927 3.04925 2.93817Z" fill="#1E1E1E" fill-opacity="0.75"/>
<path d="M15.0682 2.3275C15.3612 2.32033 15.5539 2.44889 15.6659 2.68546C15.7734 2.91343 15.7564 3.14379 15.5802 3.33113C15.2897 3.63939 14.9957 3.94717 14.6813 4.23106C14.3931 4.49152 13.9921 4.46285 13.7434 4.19856C13.5 3.94 13.5195 3.58586 13.8003 3.30198C14.0592 3.0396 14.3264 2.78535 14.5864 2.52345C14.7256 2.38294 14.8905 2.31842 15.0687 2.3275H15.0682Z" fill="#1E1E1E" fill-opacity="0.75"/>
<path d="M10.0307 1.20866C10.0307 1.41512 10.0399 1.62254 10.0288 1.82852C10.0098 2.17884 9.72115 2.45125 9.38531 2.44982C9.04656 2.44839 8.75842 2.17836 8.74723 1.82422C8.73458 1.4113 8.73409 0.997422 8.74918 0.584977C8.76183 0.238963 9.04023 -0.000952994 9.38969 2.84582e-06C9.73916 0.000958686 10.0078 0.242786 10.0278 0.589278C10.0395 0.795262 10.0297 1.0022 10.0297 1.20914C10.0297 1.20914 10.0302 1.20914 10.0307 1.20914V1.20866Z" fill="#1E1E1E" fill-opacity="0.75"/>
</g>
<defs>
<clipPath id="clip0_135_2390">
<rect width="18.7755" height="20" fill="white"/>
</clipPath>
</defs>
</svg>
