<svg width="491" height="608" viewBox="0 0 491 608" fill="none" xmlns="http://www.w3.org/2000/svg">
<path d="M608.613 214.626C608.613 266.107 608.384 317.589 608.699 369.071C608.914 402.732 617.772 433.111 645.047 455.519C662.088 469.525 662.131 485.84 652.629 504.076C640.317 527.731 628.278 551.543 616.396 575.428C604.829 598.652 585.193 606.265 564.425 593.319C538.225 576.99 512.899 557.679 491.787 535.315C477.182 519.831 468.669 515.258 453.562 531.616C331.447 663.739 79.8079 622.25 19.4672 424.294C-14.186 313.89 -7.23459 208.088 64.2713 112.021C142.055 7.52325 288.263 -24.1887 410.549 18.2468C436.176 27.1353 456.041 28.5546 484.635 17.1572C516.353 4.52696 557.302 12.885 593.807 16.4691C600.171 17.0999 608.556 39.2208 608.928 51.6217C610.591 105.913 609.645 160.277 609.645 214.611C609.301 214.611 608.971 214.611 608.627 214.611L608.613 214.626ZM456.027 261.075C455.482 169.122 446.51 158.943 362.091 147.589C354.537 146.571 346.898 146.041 339.273 145.582C221.444 138.371 151.185 211.959 163.396 329.732C170.391 397.184 204.101 439.519 264.571 456.795C322.547 473.353 382.242 454.056 419.751 403.693C452.731 359.394 459.696 307.64 456.041 261.061L456.027 261.075Z" fill="#05C3DD"/>
</svg>
