<svg width="303" height="262" viewBox="0 0 303 262" fill="none" xmlns="http://www.w3.org/2000/svg">
<path d="M73.1824 29.4822C80.2313 25.0191 84.3286 22.6763 88.1594 19.9643C124.657 -5.84164 174.942 -6.8105 211.683 18.1099C216.651 21.4771 220.86 26.4326 224.345 31.404C230.435 40.1 235.586 40.0285 243.526 33.0082C272.872 7.05934 306.784 -4.94425 346.285 1.93707C386.176 8.88192 413.596 35.8433 418.278 76.1346C421.221 101.464 421.249 127.183 421.675 152.742C422.216 185.398 421.945 218.065 421.826 250.729C421.738 274.168 419.988 275.776 397.099 275.828C387.811 275.848 378.518 276.054 369.23 275.987C353.91 275.871 350.382 272.679 350.306 257.316C350.111 217.152 350.322 176.984 350.211 136.816C350.187 127.564 349.948 118.268 349.073 109.064C345.604 72.549 320.846 61.4189 287.407 70.7661C277.896 73.4225 269.355 79.7638 260.58 84.7789C249.951 90.8502 246.355 100.019 246.51 112.392C247.094 159.612 246.824 206.848 246.736 254.076C246.701 273.834 244.469 275.879 224.444 275.943C215.597 275.971 206.75 275.927 197.903 275.939C176.991 275.967 174.835 273.91 174.803 253.556C174.732 210.743 174.751 167.926 174.584 125.114C174.557 118.514 174.175 111.851 173.192 105.335C168.828 76.3768 150.589 63.1224 121.578 67.9151C103.315 70.9329 88.3185 80.4428 77.0927 94.6065C73.2222 99.4905 72.3311 107.722 72.2675 114.444C71.8339 159.461 72.0089 204.485 71.9453 249.506C71.9095 275.252 71.2372 275.848 44.7798 275.8C35.0498 275.784 25.3157 276.038 15.5856 275.915C5.51346 275.784 -0.0119146 270.983 1.92909e-05 260.433C0.0994681 180.986 0.167093 101.535 0.139248 22.0847C0.139248 11.6932 5.20318 6.36843 15.3191 6.09445C29.4607 5.70928 43.6222 5.52266 57.7678 5.69737C70.8195 5.8562 72.6852 15.8228 73.1864 29.4822H73.1824Z" fill="#003DA5"/>
</svg>
