<svg width="14" height="20" viewBox="0 0 14 20" fill="none" xmlns="http://www.w3.org/2000/svg">
<g clip-path="url(#clip0_135_2379)">
<path d="M13.3285 10.646C13.3285 12.8642 13.3315 15.083 13.3264 17.3012C13.3243 18.1823 12.7608 18.9657 11.9606 19.2245C11.7444 19.2943 11.5199 19.3204 11.2941 19.3204C8.2065 19.3213 5.11893 19.3244 2.03178 19.3196C0.83727 19.3178 0.00449074 18.4349 0.00449074 17.1831C0.00322447 12.8129 0.0158871 8.4423 -0.00395102 4.07168C-0.00943816 2.87518 0.930974 1.90826 2.01912 1.95028C2.85485 1.98257 3.69269 1.95205 4.5297 1.96001C4.70233 1.96178 4.80658 1.91356 4.90155 1.7499C5.44394 0.815709 6.42065 0.450347 7.40411 0.821017C7.85448 0.990871 8.20397 1.31598 8.43738 1.75477C8.52391 1.9171 8.62479 1.96089 8.78941 1.95957C9.64034 1.95293 10.4913 1.96045 11.3422 1.95603C12.1163 1.95205 12.6857 2.31475 13.0833 2.99815C13.269 3.31707 13.3294 3.66695 13.329 4.03496C13.3277 6.23863 13.3285 8.4423 13.3281 10.646H13.3285ZM12.3869 10.6446C12.3869 8.46265 12.3885 6.28065 12.386 4.09866C12.3852 3.37501 11.9542 2.92738 11.2654 2.91986C11.026 2.9172 10.7871 2.91941 10.5478 2.91941C10.1874 2.91941 9.99981 3.10416 9.98518 3.47365C9.94888 4.39723 9.15493 5.28011 8.28079 5.34956C7.29057 5.42829 6.29867 5.37654 5.30718 5.37831C4.79434 5.37919 4.34271 5.18766 3.97001 4.81478C3.54032 4.38484 3.33181 3.85626 3.34278 3.23125C3.34827 2.9203 3.34152 2.91986 3.0393 2.91986C2.70881 2.91986 2.37789 2.91632 2.0474 2.92074C1.38261 2.93047 0.949123 3.38076 0.948701 4.07654C0.946591 8.44805 0.946169 12.8191 0.948701 17.1906C0.948701 17.8785 1.38219 18.3279 2.03473 18.3283C5.12273 18.3296 8.21072 18.3292 11.2987 18.3283C11.3895 18.3283 11.4827 18.3239 11.5701 18.3013C12.0965 18.1642 12.3848 17.7679 12.3856 17.1694C12.3877 14.9949 12.3864 12.82 12.3864 10.6455L12.3869 10.6446ZM6.65237 4.39369C7.06011 4.39369 7.46827 4.39413 7.87601 4.39369C8.62606 4.39236 9.04772 3.93632 9.04392 3.15031C9.04308 2.96011 8.97512 2.90791 8.80713 2.9172C8.60369 2.92826 8.3994 2.9234 8.19553 2.91809C7.94396 2.91145 7.80847 2.79866 7.73419 2.54698C7.57421 2.00557 7.17281 1.67648 6.67137 1.67515C6.16951 1.67382 5.75586 2.00734 5.60011 2.53813C5.52245 2.80264 5.38864 2.91278 5.12442 2.91853C4.90662 2.9234 4.6884 2.9203 4.4706 2.9203C4.3807 2.9203 4.31105 2.92782 4.29206 3.05211C4.184 3.7616 4.67785 4.38528 5.36543 4.3928C5.79427 4.39767 6.22353 4.39369 6.65237 4.39413V4.39369Z" fill="#003DA5"/>
<path d="M5.94838 13.4002C5.79347 13.4064 5.67782 13.333 5.57272 13.2255C5.01599 12.6536 4.45588 12.0847 3.90041 11.5115C3.6442 11.2474 3.6193 10.9758 3.82021 10.7547C4.02619 10.5286 4.33052 10.5508 4.58546 10.8139C4.99108 11.2319 5.39924 11.6473 5.79727 12.0728C5.90997 12.1936 5.97497 12.2064 6.09738 12.079C6.9348 11.2076 7.78024 10.3446 8.62357 9.47944C8.6987 9.40248 8.77383 9.3233 8.85699 9.25695C9.08534 9.0756 9.35209 9.09506 9.51882 9.29897C9.69652 9.51615 9.69103 9.77669 9.48421 9.99121C8.81056 10.6901 8.13184 11.3837 7.45354 12.0781C7.08675 12.4536 6.71658 12.8256 6.35063 13.2016C6.23624 13.3193 6.11384 13.4104 5.94753 13.3998L5.94838 13.4002Z" fill="#003DA5"/>
</g>
<defs>
<clipPath id="clip0_135_2379">
<rect width="13.3333" height="18.6441" fill="white" transform="translate(-0.00390625 0.677979)"/>
</clipPath>
</defs>
</svg>
