<svg width="25" height="25" viewBox="0 0 25 25" fill="none" xmlns="http://www.w3.org/2000/svg">
<path d="M22.328 10.7733L21.348 14.9533C20.508 18.5633 18.848 20.0233 15.728 19.7233C15.228 19.6833 14.688 19.5933 14.108 19.4533L12.428 19.0533C8.25797 18.0633 6.96797 16.0033 7.94797 11.8233L8.92797 7.63326C9.12797 6.78326 9.36797 6.04326 9.66797 5.43326C10.838 3.01326 12.828 2.36326 16.168 3.15326L17.838 3.54326C22.028 4.52326 23.308 6.59326 22.328 10.7733Z" stroke="#1E1E1E" stroke-opacity="0.75" stroke-linecap="round" stroke-linejoin="round"/>
<path d="M15.728 19.7233C15.108 20.1433 14.328 20.4933 13.378 20.8033L11.798 21.3233C7.82797 22.6033 5.73797 21.5333 4.44797 17.5633L3.16797 13.6133C1.88797 9.64335 2.94797 7.54335 6.91797 6.26335L8.49797 5.74335C8.90797 5.61335 9.29797 5.50335 9.66797 5.43335C9.36797 6.04335 9.12797 6.78335 8.92797 7.63335L7.94797 11.8233C6.96797 16.0033 8.25797 18.0633 12.428 19.0533L14.108 19.4534C14.688 19.5934 15.228 19.6833 15.728 19.7233Z" stroke="#1E1E1E" stroke-opacity="0.75" stroke-linecap="round" stroke-linejoin="round"/>
<path d="M13.308 8.86328L18.158 10.0933" stroke="#1E1E1E" stroke-opacity="0.75" stroke-linecap="round" stroke-linejoin="round"/>
<path d="M12.328 12.7332L15.228 13.4732" stroke="#1E1E1E" stroke-opacity="0.75" stroke-linecap="round" stroke-linejoin="round"/>
</svg>
