<svg width="14" height="14" viewBox="0 0 14 14" fill="none" xmlns="http://www.w3.org/2000/svg">
<path d="M13.125 14C11.5435 14 9.97176 13.6111 8.40972 12.8333C6.84769 12.0556 5.44444 11.0444 4.2 9.8C2.95556 8.55556 1.94444 7.15232 1.16667 5.59028C0.388889 4.02824 0 2.45648 0 0.875C0 0.628704 0.0842593 0.421296 0.252778 0.252778C0.421296 0.0842593 0.628704 0 0.875 0H3.59722C3.7787 0 3.9375 0.061574 4.07361 0.184722C4.20972 0.30787 4.29722 0.473148 4.33611 0.680556L4.86111 3.13056C4.88704 3.31204 4.8838 3.47731 4.85139 3.62639C4.81898 3.77546 4.75093 3.90185 4.64722 4.00556L2.70278 5.96944C3.4287 7.175 4.24213 8.225 5.14306 9.11944C6.04398 10.0139 7.06482 10.7722 8.20556 11.3944L10.0528 9.48889C10.1824 9.3463 10.3315 9.24583 10.5 9.1875C10.6685 9.12917 10.837 9.11944 11.0056 9.15833L13.3194 9.66389C13.5139 9.70278 13.6759 9.8 13.8056 9.95556C13.9352 10.1111 14 10.2926 14 10.5V13.125C14 13.3713 13.9157 13.5787 13.7472 13.7472C13.5787 13.9157 13.3713 14 13.125 14ZM2.11944 4.9L3.69444 3.30556L3.24722 1.16667H1.16667C1.16667 1.67222 1.24444 2.22639 1.4 2.82917C1.55556 3.43194 1.79537 4.12222 2.11944 4.9ZM12.8333 12.8333V10.7528L10.8306 10.3444L9.29444 11.9583C9.82593 12.2046 10.4028 12.4056 11.025 12.5611C11.6472 12.7167 12.25 12.8074 12.8333 12.8333Z" fill="#003DA5"/>
</svg>
