<svg width="11" height="11" viewBox="0 0 11 11" fill="none" xmlns="http://www.w3.org/2000/svg">
<g clip-path="url(#clip0_1700_3376)">
<path d="M5.5 11C2.46721 11 0 8.53279 0 5.5C0 2.46721 2.46721 0 5.5 0C8.53279 0 11 2.46721 11 5.5C11 8.53279 8.53279 11 5.5 11ZM5.5 0.916667C2.97275 0.916667 0.916667 2.97275 0.916667 5.5C0.916667 8.02725 2.97275 10.0833 5.5 10.0833C8.02725 10.0833 10.0833 8.02725 10.0833 5.5C10.0833 2.97275 8.02725 0.916667 5.5 0.916667ZM7.79167 5.5C7.79167 5.24654 7.58679 5.04167 7.33333 5.04167H5.95833V2.75C5.95833 2.49654 5.753 2.29167 5.5 2.29167C5.247 2.29167 5.04167 2.49654 5.04167 2.75V5.5C5.04167 5.75346 5.247 5.95833 5.5 5.95833H7.33333C7.58679 5.95833 7.79167 5.75346 7.79167 5.5Z" fill="#003DA5"/>
</g>
<defs>
<clipPath id="clip0_1700_3376">
<rect width="11" height="11" fill="white"/>
</clipPath>
</defs>
</svg>
