<svg width="19" height="19" viewBox="0 0 19 19" fill="none" xmlns="http://www.w3.org/2000/svg">
<g opacity="0.5">
<path d="M12.7286 13.5498C10.855 15.077 8.76879 15.6628 6.44035 15.3133C4.47234 15.0174 2.90251 14.0284 1.6514 12.4914C-0.658172 9.65256 -0.616469 5.09695 2.2283 2.22736C4.9003 -0.467477 9.35264 -0.764366 12.3881 1.59585C13.5041 2.46368 14.359 3.54201 14.8595 4.87652C15.3589 6.20805 15.5218 7.57533 15.2924 8.98729C15.064 10.3873 14.508 11.6355 13.5369 12.7595C13.6282 12.823 13.7126 12.8657 13.7762 12.9293C15.4304 14.5914 17.0827 16.2566 18.7369 17.9188C18.9275 18.1104 19.0735 18.314 18.9603 18.5979C18.8163 18.9614 18.4112 19.0914 18.0806 18.8799C17.9912 18.8233 17.9147 18.7439 17.8393 18.6684C16.2029 17.046 14.5676 15.4235 12.9332 13.7991C12.8637 13.7296 12.8081 13.6452 12.7296 13.5488L12.7286 13.5498ZM14.2617 7.7064C14.2647 4.05139 11.3772 1.16293 7.71528 1.15796C4.09105 1.15201 1.14798 4.09011 1.15196 7.70937C1.15593 11.3247 4.0702 14.237 7.6984 14.2518C11.3226 14.2667 14.2597 11.3386 14.2617 7.7064Z" fill="#003DA5"/>
</g>
</svg>
