<svg width="11" height="11" viewBox="0 0 11 11" fill="none" xmlns="http://www.w3.org/2000/svg">
<g clip-path="url(#clip0_1700_3404)">
<path d="M9.1665 0H2.2915C1.92683 0 1.57709 0.144866 1.31923 0.402728C1.06137 0.660591 0.916504 1.01033 0.916504 1.375V9.625C0.916504 9.98967 1.06137 10.3394 1.31923 10.5973C1.57709 10.8551 1.92683 11 2.2915 11H10.0832V0.916667C10.0832 0.673552 9.98659 0.440394 9.81468 0.268485C9.64278 0.0965771 9.40962 0 9.1665 0ZM9.1665 8.25H3.6665V0.916667H9.1665V8.25ZM2.2915 0.916667H2.74984V8.25H2.2993C2.14013 8.25138 1.98241 8.28038 1.83317 8.33571V1.375C1.83317 1.25344 1.88146 1.13686 1.96741 1.05091C2.05337 0.964955 2.16995 0.916667 2.2915 0.916667ZM2.2915 10.0833C2.17058 10.0833 2.05455 10.0356 1.9687 9.95039C1.88285 9.86523 1.83414 9.74959 1.83317 9.62867H1.84005C1.83956 9.56817 1.85106 9.50818 1.87388 9.45214C1.89669 9.39611 1.93038 9.34515 1.97299 9.3022C2.01559 9.25925 2.06628 9.22516 2.12213 9.2019C2.17798 9.17864 2.23788 9.16667 2.29838 9.16667H9.1665V10.0833H2.2915Z" fill="#003DA5"/>
</g>
<defs>
<clipPath id="clip0_1700_3404">
<rect width="11" height="11" fill="white"/>
</clipPath>
</defs>
</svg>
