<svg width="10" height="10" viewBox="0 0 10 10" fill="none" xmlns="http://www.w3.org/2000/svg">
<g clip-path="url(#clip0_1700_3334)">
<path d="M10 7.91699V1.66699C10 1.33547 9.8683 1.01753 9.63388 0.783109C9.39946 0.548688 9.08152 0.416992 8.75 0.416992H1.25C0.918479 0.416992 0.600537 0.548688 0.366116 0.783109C0.131696 1.01753 0 1.33547 0 1.66699L0 7.91699H4.58333V8.75033H2.5V9.58366H7.5V8.75033H5.41667V7.91699H10ZM1.25 1.25033H8.75C8.86051 1.25033 8.96649 1.29422 9.04463 1.37236C9.12277 1.4505 9.16667 1.55649 9.16667 1.66699V5.41699H0.833333V1.66699C0.833333 1.55649 0.877232 1.4505 0.955372 1.37236C1.03351 1.29422 1.13949 1.25033 1.25 1.25033ZM0.833333 6.25033H9.16667V7.08366H0.833333V6.25033Z" fill="#003DA5"/>
</g>
<defs>
<clipPath id="clip0_1700_3334">
<rect width="10" height="10" fill="white"/>
</clipPath>
</defs>
</svg>
