<svg width="136" height="90" viewBox="0 0 136 90" fill="none" xmlns="http://www.w3.org/2000/svg">
<path d="M217.032 76.5358C217.032 94.8942 216.95 113.253 217.063 131.611C217.14 143.615 220.298 154.448 230.025 162.439C236.102 167.433 236.117 173.251 232.728 179.754C228.338 188.189 224.045 196.681 219.807 205.198C215.683 213.48 208.681 216.195 201.275 211.578C191.932 205.755 182.901 198.869 175.372 190.894C170.164 185.373 167.128 183.742 161.741 189.575C118.195 236.69 28.4596 221.895 6.94204 151.304C-5.05873 111.934 -2.57986 74.2045 22.9192 39.9467C50.6569 2.6828 102.795 -8.62571 146.402 6.50683C155.541 9.67649 162.625 10.1826 172.822 6.1183C184.132 1.61432 198.735 4.59482 211.752 5.8729C214.022 6.09785 217.012 13.9862 217.145 18.4084C217.738 37.7688 217.4 57.1549 217.4 76.5307C217.278 76.5307 217.16 76.5307 217.037 76.5307L217.032 76.5358ZM162.62 93.0998C162.426 60.3092 159.226 56.6794 129.122 52.6304C126.428 52.2675 123.704 52.0783 120.985 51.9147C78.9671 49.3432 53.9127 75.5849 58.2673 117.583C60.7615 141.636 72.7827 156.733 94.3463 162.894C115.021 168.798 136.308 161.917 149.684 143.957C161.444 128.16 163.928 109.705 162.625 93.0947L162.62 93.0998Z" fill="#97D700"/>
</svg>
