<svg width="139" height="61" viewBox="0 0 139 61" fill="none" xmlns="http://www.w3.org/2000/svg">
<path d="M99.4817 120.454C89.1676 123.217 78.8413 125.935 68.5442 128.762C61.8118 130.612 56.2011 134.017 53.1761 140.684C51.2847 144.851 48.0185 145.735 43.855 144.81C38.4549 143.613 33.0379 142.48 27.615 141.381C22.3411 140.311 19.7619 136.786 21.2406 131.93C23.1055 125.804 25.6148 119.694 28.9621 114.263C31.2801 110.506 31.7393 108.555 27.6511 106.407C-5.37437 89.0343 -10.5707 36.3927 25.8493 13.6771C46.1615 1.00819 67.7315 -3.27881 90.8166 5.88986C115.928 15.8637 130.13 43.4532 128.193 70.2306C127.788 75.842 128.57 79.898 132.388 85.0148C136.621 90.6913 137.145 99.3438 138.386 106.85C138.602 108.159 134.62 111.026 132.155 111.766C121.368 115.014 110.426 117.743 99.54 120.659C99.5215 120.591 99.5038 120.525 99.4853 120.456L99.4817 120.454ZM81.9847 92.3773C100.378 87.332 101.935 84.988 99.6783 67.4656C99.4767 65.8976 99.1729 64.3387 98.8555 62.7864C93.9749 38.7929 75.4603 28.6674 52.5207 37.4361C39.3825 42.4584 32.7106 51.4847 32.4957 64.5268C32.2906 77.0308 39.3611 87.9546 51.4647 92.7657C62.1102 96.9948 72.8527 95.6121 81.9883 92.3794L81.9847 92.3773Z" fill="#97D700"/>
</svg>
