<svg width="109" height="138" viewBox="0 0 109 138" fill="none" xmlns="http://www.w3.org/2000/svg">
<path d="M-97.3385 70.67C-102.09 52.9371 -106.763 35.183 -111.623 17.4792C-114.804 5.90432 -120.658 -3.74209 -132.121 -8.94305C-139.284 -12.1948 -140.805 -17.8104 -139.215 -24.9688C-137.157 -34.253 -135.208 -43.5665 -133.32 -52.8901C-131.479 -61.9574 -125.418 -66.3919 -117.07 -63.8495C-106.538 -60.6431 -96.0321 -56.3289 -86.6958 -50.5739C-80.2361 -46.5887 -76.8815 -45.7992 -73.1877 -52.8279C-43.3197 -109.608 47.1868 -118.543 86.2416 -55.9258C108.023 -21.0031 115.394 16.082 99.6302 55.7722C82.4822 98.9454 35.0477 123.363 -10.9906 120.032C-20.6381 119.336 -27.6117 120.681 -36.4089 127.245C-46.1685 134.523 -61.0447 135.424 -73.9498 137.559C-76.2 137.929 -81.1297 131.083 -82.4026 126.846C-87.9862 108.299 -92.6778 89.4858 -97.6926 70.7702C-97.5741 70.7384 -97.4606 70.708 -97.3421 70.6763L-97.3385 70.67ZM-49.0673 40.5874C-40.3929 72.2104 -36.3629 74.8884 -6.23656 71.0079C-3.54088 70.6614 -0.86055 70.139 1.80823 69.5933C43.0601 61.2021 60.469 29.37 45.3928 -10.0698C36.7581 -32.6582 21.2392 -44.1293 -1.18406 -44.4987C-22.6821 -44.8513 -41.4633 -32.695 -49.7349 -11.8854C-57.0061 6.41736 -54.6288 24.887 -49.0709 40.5937L-49.0673 40.5874Z" fill="#97D700"/>
</svg>
