<svg width="38" height="38" viewBox="0 0 38 38" fill="none" xmlns="http://www.w3.org/2000/svg">
<path d="M35.3415 21.6585C36.8098 12.6333 30.6836 4.12672 21.6585 2.65849C12.6333 1.19026 4.12669 7.31638 2.65846 16.3416C1.19023 25.3667 7.31635 33.8733 16.3415 35.3416C25.3667 36.8098 33.8733 30.6837 35.3415 21.6585Z" fill="#005EAA"/>
<path d="M26.4106 25.1343C26.3407 25.4485 26.2116 25.7303 25.8991 25.8639C25.7443 25.93 25.5653 25.9725 25.3976 25.9725C21.1766 25.9791 16.9561 25.9791 12.7351 25.9787C12.2253 25.9787 11.9052 25.7336 11.7646 25.2404C11.2656 23.4903 10.7682 21.7395 10.2721 19.9886C10.1485 19.552 10.3787 19.2461 10.8332 19.2398C11.107 19.2361 11.3813 19.239 11.6551 19.239C11.7117 19.239 11.7687 19.239 11.8382 19.239C11.8382 19.157 11.8382 19.0946 11.8382 19.0322C11.8382 17.9676 11.8382 16.9034 11.8382 15.8388C11.8382 15.3839 12.0401 15.1808 12.4921 15.1804C13.667 15.1799 14.8423 15.1804 16.0172 15.1804H16.1857V16.2512H12.9224V19.239H13.1342C16.7859 19.239 20.4375 19.239 24.0895 19.2403C24.2044 19.2403 24.3247 19.2428 24.4329 19.2765C24.6435 19.3414 24.7417 19.5137 24.7987 19.7172C24.9523 20.2641 25.1092 20.8101 25.2652 21.3561C25.2773 21.399 25.2944 21.4406 25.3248 21.4768V18.0233H20.6693C20.949 17.6987 21.1063 17.3574 21.135 16.9433H21.3235C22.7885 16.9433 24.2535 16.9433 25.718 16.9433C26.143 16.9433 26.2632 17.0261 26.411 17.419V25.1339L26.4106 25.1343Z" fill="white"/>
<path d="M17.2719 13.6239C16.9073 13.6239 16.5606 13.6284 16.2143 13.6226C15.9022 13.6172 15.6945 13.3846 15.7557 13.0982C15.7761 13.0017 15.836 12.9009 15.9064 12.8302C16.7104 12.0182 17.5191 11.2108 18.3286 10.4042C18.5462 10.1874 18.7947 10.1833 19.0107 10.398C19.8247 11.2075 20.6359 12.0199 21.447 12.8323C21.5931 12.9784 21.6539 13.1519 21.5686 13.35C21.4837 13.5469 21.3184 13.6239 21.1112 13.6239C20.7749 13.6239 20.4386 13.6239 20.0774 13.6239C20.0774 13.6946 20.0774 13.755 20.0774 13.8153C20.0774 14.7842 20.0774 15.7535 20.0774 16.7224C20.0774 17.2218 19.8522 17.4469 19.3549 17.4474C18.8912 17.4474 18.428 17.4482 17.9644 17.4474C17.5045 17.4465 17.2719 17.216 17.2719 16.7602C17.2714 15.7805 17.2719 14.8013 17.2719 13.8216V13.6239Z" fill="white"/>
</svg>
