<svg width="17" height="14" viewBox="0 0 17 14" fill="none" xmlns="http://www.w3.org/2000/svg">
<path d="M3.1362 6.12776H3.42233C7.39297 6.12776 11.3646 6.12776 15.3352 6.12776C15.8879 6.12776 16.2209 6.36506 16.3118 6.81818C16.4231 7.37579 16.0374 7.83379 15.4241 7.86992C15.3508 7.87382 15.2776 7.87089 15.2053 7.87089C11.2747 7.87089 7.34512 7.87089 3.41452 7.87089H3.13327L3.07761 7.9539C3.15573 8.00663 3.2446 8.0496 3.31198 8.11405C4.8227 9.55251 6.33244 10.9929 7.84022 12.4353C8.16932 12.7497 8.26209 13.0993 8.12049 13.444C7.87343 14.0466 7.19082 14.1882 6.68009 13.7263C6.21037 13.3015 5.7592 12.8571 5.3012 12.4196C3.66158 10.8552 2.02294 9.29177 0.38527 7.72734C-0.124487 7.24102 -0.128393 6.76251 0.373552 6.28303C2.43504 4.31431 4.49458 2.3456 6.56095 0.383714C6.70938 0.242115 6.89297 0.110281 7.0834 0.0458289C7.47304 -0.0860048 7.84706 0.0761018 8.0453 0.410081C8.25819 0.767497 8.2162 1.17081 7.91737 1.48135C7.68593 1.72061 7.43984 1.94521 7.19863 2.1747C5.88908 3.42468 4.57954 4.67466 3.26999 5.92366C3.21725 5.97346 3.15769 6.01546 3.10105 6.06135L3.13522 6.12678L3.1362 6.12776Z" fill="#FBFBFB"/>
</svg>
